<?xml version="1.0" encoding="UTF-8" standalone="no"?>
<!-- Generator: Adobe Illustrator 18.1.1, SVG Export Plug-In . SVG Version: 6.00 Build 0)  -->

<svg
   version="1.1"
   id="Layer_1"
   x="0px"
   y="0px"
   viewBox="7.7 3 347 110.6"
   enable-background="new 7.7 3 347 110.6"
   xml:space="preserve"
   inkscape:version="1.4.2 (ebf0e940, 2025-05-08)"
   sodipodi:docname="usegalaxy_czechia.svg"
   inkscape:export-filename="galaxy_czechia_CZ.png"
   inkscape:export-xdpi="138.32854"
   inkscape:export-ydpi="138.32854"
   xmlns:inkscape="http://www.inkscape.org/namespaces/inkscape"
   xmlns:sodipodi="http://sodipodi.sourceforge.net/DTD/sodipodi-0.dtd"
   xmlns="http://www.w3.org/2000/svg"
   xmlns:svg="http://www.w3.org/2000/svg"
   xmlns:rdf="http://www.w3.org/1999/02/22-rdf-syntax-ns#"
   xmlns:cc="http://creativecommons.org/ns#"
   xmlns:dc="http://purl.org/dc/elements/1.1/"><metadata
     id="metadata4902"><rdf:RDF><cc:Work
         rdf:about=""><dc:format>image/svg+xml</dc:format><dc:type
           rdf:resource="http://purl.org/dc/dcmitype/StillImage" /></cc:Work></rdf:RDF></metadata><defs
     id="defs4900"><rect
       x="11.088552"
       y="68.749025"
       width="180.26817"
       height="48.472815"
       id="rect2" /><rect
       x="24.394815"
       y="76.66942"
       width="99.16334"
       height="32.632026"
       id="rect1" /><rect
       x="11.088552"
       y="68.749025"
       width="113.10323"
       height="38.017894"
       id="rect3" /><rect
       x="11.088552"
       y="68.749025"
       width="113.10323"
       height="38.017894"
       id="rect4" /><rect
       x="11.088552"
       y="68.749025"
       width="113.10323"
       height="38.017894"
       id="rect5" /><rect
       x="11.088552"
       y="68.749025"
       width="113.10323"
       height="38.017894"
       id="rect6" /><rect
       x="11.088552"
       y="68.749025"
       width="113.10323"
       height="38.017894"
       id="rect7" /><rect
       x="11.088552"
       y="68.749025"
       width="113.10323"
       height="38.017894"
       id="rect8" /><rect
       x="11.088552"
       y="68.749025"
       width="113.10323"
       height="38.017894"
       id="rect9" /><rect
       x="11.088552"
       y="68.749025"
       width="113.10323"
       height="38.017894"
       id="rect10" /><rect
       x="11.088552"
       y="68.749025"
       width="113.10323"
       height="38.017894"
       id="rect11" /></defs><sodipodi:namedview
     pagecolor="#ffffff"
     bordercolor="#666666"
     borderopacity="1"
     objecttolerance="10"
     gridtolerance="10"
     guidetolerance="10"
     inkscape:pageopacity="0"
     inkscape:pageshadow="2"
     inkscape:window-width="1888"
     inkscape:window-height="1186"
     id="namedview4898"
     showgrid="false"
     inkscape:zoom="3.1564084"
     inkscape:cx="153.02202"
     inkscape:cy="78.095091"
     inkscape:window-x="1154"
     inkscape:window-y="272"
     inkscape:window-maximized="0"
     inkscape:current-layer="g1911"
     inkscape:showpageshadow="2"
     inkscape:pagecheckerboard="0"
     inkscape:deskcolor="#d1d1d1" /><linearGradient
     id="SVGID_1_"
     gradientUnits="userSpaceOnUse"
     x1="61.4"
     y1="282.5"
     x2="175.7"
     y2="282.5"
     gradientTransform="matrix(0.431 0 0 -0.431 0 179.9715)"><stop
       offset="0.1656"
       style="stop-color:#D0BD2B"
       id="stop4862" /><stop
       offset="1"
       style="stop-color:#D0BD2B;stop-opacity:0"
       id="stop4864" /></linearGradient><g
     id="g1911"
     style="display:inline"
     inkscape:groupmode="layer"
     inkscape:label="logo"><path
       fill="#58595B"
       d="m 57.7,27.9 h -47 c -0.6,0 -1.1,-0.5 -1.1,-1.1 V 14.6 c 0,-0.6 0.5,-1.1 1.1,-1.1 h 47 c 0.6,0 1.1,0.5 1.1,1.1 v 12.1 c 0,0.6 -0.4,1.2 -1.1,1.2 z"
       id="path4857"
       style="fill:#58595b;fill-opacity:1" /><path
       style="display:inline;fill:#58595b;fill-opacity:1;stroke-width:1"
       d="M 2.2302659,42.951999 C 1.7361476,42.02873 1.7944242,30.838815 2.2969144,30.154551 2.6629389,29.656119 4.036722,29.621537 20.434618,29.697978 l 17.741684,0.08271 v 6.811539 6.811539 l -17.808333,0.08184 C 3.0155838,43.565339 2.5512043,43.551678 2.2302659,42.951999 Z"
       id="path1964"
       transform="translate(7.7,3)" /><path
       fill="url(#SVGID_1_)"
       d="m 74.6,65.4 h -47 c -0.6,0 -1.2,-0.5 -1.2,-1.2 v -12 c 0,-0.6 0.5,-1.2 1.2,-1.2 h 46.9 c 0.6,0 1.2,0.5 1.2,1.2 v 12 c 0,0.7 -0.5,1.2 -1.1,1.2 z"
       id="path4866"
       style="display:inline" /></g><text
     xml:space="preserve"
     transform="translate(114.92665,-0.88139475)"
     id="text2"
     style="font-style:normal;font-variant:normal;font-weight:normal;font-stretch:normal;font-size:37.3333px;font-family:Exo;-inkscape-font-specification:Exo;text-align:start;writing-mode:lr-tb;direction:ltr;white-space:pre;shape-inside:url(#rect2);display:inline;fill:#000d80;fill-opacity:1"
     inkscape:label="CZECHIA"><tspan
       x="11.087891"
       y="103.2833"
       id="tspan4"><tspan
         style="fill:#d7141a"
         id="tspan1">C</tspan><tspan
         style="fill:#11457e"
         id="tspan2">Z</tspan><tspan
         style="fill:#58595b"
         id="tspan3">ECHIA</tspan></tspan></text><g
     inkscape:groupmode="layer"
     id="layer2"
     inkscape:label="GALAXY"
     style="display:inline"><path
       style="fill:#58595b;fill-opacity:1;stroke-width:1"
       d="M 106.13329,59.051402 C 100.58006,58.678237 96.037635,57.314158 92.029738,54.816145 86.01898,51.069805 82.290848,45.481827 80.717744,37.860959 79.793509,33.383518 80.037737,25.866608 81.237107,21.875922 83.499409,14.348522 87.812024,9.1642051 94.569511,5.8486589 99.736786,3.3133469 102.14357,2.8584404 110.4103,2.8545892 c 9.13614,-0.00426 11.09995,0.3958195 19.88019,4.0500781 l 0.87124,0.3626036 v 6.2668581 6.266857 h -0.80205 c -0.47683,0 -1.72936,-0.693689 -3.08895,-1.710759 -4.62528,-3.460028 -9.27694,-5.240341 -14.3259,-5.482899 -7.56877,-0.363612 -13.484372,2.706455 -16.439952,8.531973 -3.726811,7.345629 -2.215221,18.746409 3.133684,23.635006 3.303378,3.019103 6.786188,4.165488 13.385468,4.405891 l 4.51463,0.164462 v -5.584179 -5.584179 h -5.54428 -5.54428 v -4.910645 -4.910644 h 12.51766 12.51767 l -0.0827,13.364636 -0.0826,13.364636 -1.74248,0.609807 c -7.26507,2.542513 -16.30501,3.837061 -23.44437,3.35731 z"
       id="path1966"
       transform="translate(7.7,3)" /><path
       style="fill:#58595b;fill-opacity:1;stroke-width:1"
       d="m 148.31925,59.040307 c -4.29462,-0.510888 -8.38958,-3.382275 -10.26954,-7.200998 -0.9702,-1.970762 -1.02679,-2.27865 -1.0251,-5.577543 0.002,-3.174095 0.0846,-3.67126 0.91228,-5.466764 1.65784,-3.596356 5.47538,-6.250245 11.02512,-7.664481 2.298,-0.585599 8.15662,-1.351769 13.65282,-1.78547 l 2.46444,-0.194468 -0.20326,-1.160173 c -0.67446,-3.849615 -4.12562,-5.335774 -11.69558,-5.036413 -3.36804,0.133192 -4.25847,0.299635 -7.80462,1.458865 -2.20156,0.719685 -4.23314,1.308519 -4.51462,1.308519 -0.44917,0 -0.5118,-0.600887 -0.5118,-4.910645 0,-2.700854 0.0673,-4.910644 0.14965,-4.910644 0.0823,0 2.18517,-0.367374 4.67303,-0.816387 5.61528,-1.013454 13.329,-1.349817 17.87519,-0.779464 7.48424,0.938953 11.52588,3.274089 13.70391,7.91771 l 0.82408,1.756943 0.0928,16.078401 0.0928,16.078401 h -6.34992 -6.34992 v -2.059302 c 0,-1.132617 -0.0645,-2.059303 -0.14323,-2.059303 -0.0788,0 -1.0411,0.623766 -2.1385,1.386148 -1.0974,0.762383 -2.5741,1.678145 -3.28155,2.035028 -2.77648,1.400653 -7.35523,2.056851 -11.17849,1.60204 z m 13.63515,-9.407585 c 3.17445,-1.545596 3.10662,-1.405401 3.10662,-6.421274 v -4.423339 l -1.66328,0.187868 c -10.78509,1.218175 -12.90641,2.319236 -12.90906,6.700392 -10e-4,1.663637 0.12662,2.107673 0.85435,2.972538 1.34471,1.598095 2.36458,1.906484 5.95601,1.800984 2.52545,-0.07419 3.46985,-0.239963 4.65536,-0.817169 z"
       id="path1968"
       transform="translate(7.7,3)" /><path
       style="fill:#58595b;fill-opacity:1;stroke-width:1"
       d="M 187.23813,29.622276 V 1.1088552 h 6.49472 6.49473 v 28.5134208 28.51342 h -6.49473 -6.49472 z"
       id="path1970"
       transform="translate(7.7,3)" /><path
       style="fill:#58595b;fill-opacity:1;stroke-width:1"
       d="m 217.70191,59.040307 c -4.29462,-0.510888 -8.38959,-3.382275 -10.26954,-7.200998 -0.97004,-1.97043 -1.02689,-2.279578 -1.02689,-5.584205 0,-3.306542 0.0564,-3.612939 1.02963,-5.589772 2.8715,-5.832843 8.77948,-8.073236 24.58291,-9.322206 l 2.48499,-0.196393 -0.21201,-1.158248 c -0.70356,-3.843735 -4.17338,-5.333239 -11.72791,-5.034488 -3.36804,0.133192 -4.25848,0.299635 -7.80462,1.458865 -2.20156,0.719685 -4.23314,1.308519 -4.51463,1.308519 -0.44902,0 -0.51179,-0.598275 -0.51179,-4.877731 v -4.87773 l 2.77214,-0.507112 c 12.96876,-2.372399 23.34249,-1.821889 29.08506,1.543476 2.19716,1.287623 4.16299,3.735845 4.89016,6.090163 0.60119,1.946432 0.6369,2.930569 0.6369,17.552648 V 58.135696 H 240.78 234.44368 v -2.059302 c 0,-1.132617 -0.0644,-2.059303 -0.14323,-2.059303 -0.0788,0 -1.0411,0.623766 -2.13851,1.386148 -1.0974,0.762383 -2.57409,1.678145 -3.28154,2.035028 -2.77649,1.400653 -7.35523,2.056851 -11.17849,1.60204 z m 12.51382,-8.980289 c 0.87435,-0.259656 2.18333,-0.902102 2.90884,-1.427661 l 1.31911,-0.955554 v -4.444348 -4.444346 l -1.66328,0.187868 c -10.78509,1.218175 -12.90641,2.319236 -12.90906,6.700392 -0.001,1.663637 0.12661,2.107673 0.85435,2.972538 0.47055,0.559212 1.29031,1.206121 1.82169,1.437577 1.30715,0.569363 5.71318,0.554152 7.66835,-0.02645 z"
       id="path1972"
       transform="translate(7.7,3)" /><path
       style="fill:#58595b;fill-opacity:1;stroke-width:1"
       d="m 308.37331,72.313203 c 0.24029,-0.566309 1.66787,-3.930629 3.17241,-7.476273 1.50455,-3.545641 2.73554,-6.637744 2.73554,-6.871345 0,-0.517566 -15.1683,-39.484779 -15.5112,-39.84812 -0.19203,-0.203476 -15.08892,18.231357 -15.47827,19.154292 -0.055,0.130287 3.47357,4.813708 7.84119,10.407601 4.36761,5.593894 7.94112,10.237561 7.94112,10.319262 0,0.0817 -3.37968,0.110321 -7.51041,0.06361 l -7.5104,-0.08494 -4.18217,-5.851223 c -2.3002,-3.218173 -4.32277,-5.898087 -4.4946,-5.955366 -0.17184,-0.05728 -2.28803,2.607137 -4.70264,5.920922 l -4.39021,6.025066 -7.40357,0.0095 -7.40357,0.0095 0.8995,-1.188059 c 0.49473,-0.653432 4.07583,-5.217449 7.958,-10.142258 3.88217,-4.92481 7.05849,-9.021381 7.05849,-9.103491 0,-0.08211 -3.3917,-4.535463 -7.53711,-9.89634 -4.14542,-5.360877 -7.64672,-9.925257 -7.78069,-10.143068 -0.19232,-0.312691 1.34362,-0.393127 7.29951,-0.382271 l 7.54307,0.01375 4.1186,5.875599 c 2.26524,3.231579 4.21626,5.936851 4.33562,6.011715 0.11935,0.07487 2.15305,-2.568032 4.51932,-5.873103 l 4.30232,-6.009221 7.36127,-0.09545 c 4.04869,-0.0525 10.35172,-0.02416 14.00672,0.06296 l 6.64546,0.158408 4.89938,13.227453 c 2.69465,7.275099 5.00147,13.062251 5.12626,12.860338 0.12479,-0.201913 2.27182,-6.189564 4.77118,-13.305892 l 4.54429,-12.938779 6.60782,-7.63e-4 c 6.15842,-7.13e-4 6.5942,0.03694 6.40758,0.553663 -0.11013,0.304935 -5.22216,12.919917 -11.36006,28.033292 l -11.15982,27.478862 -7.0534,0.0049 -7.0534,0.0049 0.43687,-1.029651 z"
       id="path1974"
       transform="translate(7.7,3)" /></g></svg>
