<?xml version="1.0" encoding="UTF-8" standalone="no"?>
<!-- Generator: Adobe Illustrator 18.1.1, SVG Export Plug-In . SVG Version: 6.00 Build 0)  -->

<svg
   version="1.1"
   id="Layer_1"
   x="0px"
   y="0px"
   viewBox="7.7 3 294.80316 94.488191"
   enable-background="new 7.7 3 347 110.6"
   xml:space="preserve"
   inkscape:version="1.4.2 (ebf0e940d0, 2025-05-08)"
   sodipodi:docname="galaxy_france_logo.svg"
   inkscape:export-filename="galaxy-fr.png"
   inkscape:export-xdpi="138.32854"
   inkscape:export-ydpi="138.32854"
   width="7.8000002cm"
   height="2.5cm"
   xmlns:inkscape="http://www.inkscape.org/namespaces/inkscape"
   xmlns:sodipodi="http://sodipodi.sourceforge.net/DTD/sodipodi-0.dtd"
   xmlns="http://www.w3.org/2000/svg"
   xmlns:svg="http://www.w3.org/2000/svg"
   xmlns:rdf="http://www.w3.org/1999/02/22-rdf-syntax-ns#"
   xmlns:cc="http://creativecommons.org/ns#"
   xmlns:dc="http://purl.org/dc/elements/1.1/"><metadata
     id="metadata4902"><rdf:RDF><cc:Work
         rdf:about=""><dc:format>image/svg+xml</dc:format><dc:type
           rdf:resource="http://purl.org/dc/dcmitype/StillImage" /></cc:Work></rdf:RDF></metadata><defs
     id="defs4900" /><sodipodi:namedview
     pagecolor="#ffffff"
     bordercolor="#666666"
     borderopacity="1"
     objecttolerance="10"
     gridtolerance="10"
     guidetolerance="10"
     inkscape:pageopacity="0"
     inkscape:pageshadow="2"
     inkscape:window-width="1920"
     inkscape:window-height="1116"
     id="namedview4898"
     showgrid="false"
     inkscape:zoom="1.5782042"
     inkscape:cx="157.14063"
     inkscape:cy="99.796972"
     inkscape:window-x="0"
     inkscape:window-y="0"
     inkscape:window-maximized="1"
     inkscape:current-layer="Layer_1"
     inkscape:showpageshadow="2"
     inkscape:pagecheckerboard="0"
     inkscape:deskcolor="#d1d1d1"
     inkscape:document-units="cm" /><linearGradient
     id="SVGID_1_"
     gradientUnits="userSpaceOnUse"
     x1="61.400002"
     y1="282.5"
     x2="175.7"
     y2="282.5"
     gradientTransform="matrix(0.431,0,0,-0.431,0,179.9715)"><stop
       offset="0.1656"
       style="stop-color:#D0BD2B"
       id="stop4862" /><stop
       offset="1"
       style="stop-color:#D0BD2B;stop-opacity:0"
       id="stop4864" /></linearGradient><g
     id="g1911"
     transform="translate(-31.771622,-10.379991)" /><g
     id="g1"
     transform="matrix(0.82586122,0,0,0.82586122,5.4603165,2.4556102)"><path
       fill="#58595B"
       d="M 45.1,46.8 H 10.8 c -0.6,0 -1.2,-0.5 -1.2,-1.2 v -12 c 0,-0.6 0.5,-1.2 1.2,-1.2 h 34.3 c 0.6,0 1.2,0.5 1.2,1.2 v 12 c 0,0.7 -0.5,1.2 -1.2,1.2 z"
       id="path4859"
       style="fill:#003399;fill-opacity:1" /><path
       fill="url(#SVGID_1_)"
       d="m 74.6,65.4 h -47 c -0.6,0 -1.2,-0.5 -1.2,-1.2 v -12 c 0,-0.6 0.5,-1.2 1.2,-1.2 h 46.9 c 0.6,0 1.2,0.5 1.2,1.2 v 12 c 0,0.7 -0.5,1.2 -1.1,1.2 z"
       id="path4866"
       style="fill:url(#SVGID_1_)" /><g
       id="g4884"
       style="fill:#003399;fill-opacity:1"><path
         fill="#58595B"
         d="m 139.2,58.2 c -2.5,0.9 -5.7,1.9 -9.7,2.8 -4.1,0.9 -8.1,1.4 -12.1,1.4 -9.3,0 -16.6,-2.5 -21.9,-7.6 -5.3,-5.1 -7.9,-12.1 -7.9,-21 0,-8.5 2.7,-15.4 8,-20.6 5.3,-5.2 12.8,-7.8 22.3,-7.8 3.6,0 7,0.3 10.3,1 3.3,0.6 6.9,1.9 10.9,3.9 v 12.8 h -1.6 c -0.7,-0.5 -1.7,-1.2 -3,-2.2 -1.3,-1 -2.6,-1.8 -3.8,-2.4 -1.4,-0.8 -3.1,-1.5 -5,-2 -1.9,-0.6 -3.9,-0.9 -6.1,-0.9 -2.5,0 -4.8,0.4 -6.8,1.1 -2,0.7 -3.9,1.9 -5.5,3.4 -1.6,1.5 -2.8,3.4 -3.7,5.6 -0.9,2.3 -1.3,4.9 -1.3,7.8 0,6.1 1.6,10.7 4.8,13.9 3.2,3.2 8,4.8 14.3,4.8 0.6,0 1.1,0 1.8,0 0.6,0 1.2,0 1.8,-0.1 V 41.4 H 114.1 V 31.1 h 25.3 z"
         id="path4886"
         style="fill:#003399;fill-opacity:1" /><path
         fill="#58595B"
         d="m 172.7,57 c -0.7,0.6 -1.6,1.2 -2.7,1.9 -1,0.8 -2.1,1.4 -3,1.8 -1.3,0.6 -2.7,1 -4.1,1.3 -1.4,0.3 -2.9,0.4 -4.6,0.4 -3.9,0 -7.2,-1.2 -9.9,-3.7 -2.7,-2.4 -4,-5.5 -4,-9.3 0,-3 0.7,-5.5 2,-7.4 1.3,-1.9 3.3,-3.4 5.7,-4.5 2.4,-1.1 5.5,-1.9 9.1,-2.4 3.6,-0.5 7.4,-0.8 11.3,-1 v -0.2 c 0,-2.3 -0.9,-3.9 -2.8,-4.7 -1.9,-0.9 -4.6,-1.3 -8.2,-1.3 -2.2,0 -4.5,0.4 -7,1.2 -2.5,0.8 -4.3,1.4 -5.3,1.8 H 148 v -10 c 1.4,-0.4 3.7,-0.8 6.9,-1.3 3.1,-0.5 6.3,-0.8 9.5,-0.8 7.5,0 13,1.2 16.3,3.5 3.3,2.3 5,5.9 5,10.9 v 28.1 h -13.1 z m 0,-6.5 V 42 c -1.8,0.1 -3.7,0.3 -5.8,0.6 -2.1,0.3 -3.7,0.6 -4.7,0.9 -1.3,0.4 -2.3,1 -3,1.8 -0.7,0.8 -1,1.9 -1,3.1 0,0.9 0.1,1.6 0.2,2.1 0.1,0.6 0.5,1 1.1,1.6 0.6,0.5 1.2,0.9 2,1.1 0.8,0.2 2,0.3 3.7,0.3 1.3,0 2.7,-0.3 4.1,-0.8 1.2,-0.6 2.4,-1.3 3.4,-2.2 z"
         id="path4888"
         style="fill:#003399;fill-opacity:1" /><path
         fill="#58595B"
         d="M 208,61.3 H 194.7 V 4 H 208 Z"
         id="path4890"
         style="fill:#003399;fill-opacity:1" /><path
         fill="#58595B"
         d="m 242.1,57 c -0.7,0.6 -1.6,1.2 -2.7,1.9 -1,0.8 -2.1,1.4 -3,1.8 -1.3,0.6 -2.7,1 -4.1,1.3 -1.4,0.3 -2.9,0.4 -4.6,0.4 -3.9,0 -7.2,-1.2 -9.9,-3.7 -2.7,-2.4 -4,-5.5 -4,-9.3 0,-3 0.7,-5.5 2,-7.4 1.3,-1.9 3.3,-3.4 5.7,-4.5 2.5,-1.1 5.5,-1.9 9.1,-2.4 3.6,-0.5 7.4,-0.8 11.3,-1 v -0.2 c 0,-2.3 -0.9,-3.9 -2.8,-4.7 -1.9,-0.9 -4.6,-1.3 -8.2,-1.3 -2.2,0 -4.5,0.4 -7,1.2 -2.5,0.8 -4.3,1.4 -5.3,1.8 h -1.2 v -10 c 1.4,-0.4 3.7,-0.8 6.9,-1.3 3.1,-0.5 6.3,-0.8 9.5,-0.8 7.5,0 13,1.2 16.3,3.5 3.4,2.3 5,5.9 5,10.9 V 61.3 H 242 Z m 0,-6.5 V 42 c -1.8,0.1 -3.7,0.3 -5.8,0.6 -2.1,0.3 -3.7,0.6 -4.7,0.9 -1.3,0.4 -2.3,1 -3,1.8 -0.7,0.8 -1,1.9 -1,3.1 0,0.9 0.1,1.6 0.2,2.1 0.1,0.6 0.5,1 1.1,1.6 0.6,0.5 1.2,0.9 2,1.1 0.8,0.2 2,0.3 3.7,0.3 1.3,0 2.7,-0.3 4.1,-0.8 1.2,-0.6 2.4,-1.3 3.4,-2.2 z"
         id="path4892"
         style="fill:#003399;fill-opacity:1" /><path
         fill="#58595B"
         d="M 307.3,61.3 H 291.8 L 283,49 273.9,61.4 H 258.7 L 275,40.7 259,20 h 15.5 l 8.7,12.2 8.7,-12.2 h 15.2 L 291,40.4 Z"
         id="path4894"
         style="fill:#003399;fill-opacity:1" /><path
         fill="#58595B"
         d="M 329.8,46.7 339.2,20 h 13.6 l -23,56.5 H 315.4 L 322,61 306,20 h 13.9 z"
         id="path4896"
         style="fill:#003399;fill-opacity:1" /></g><path
       style="font-size:40px;line-height:125%;font-family:Exo;-inkscape-font-specification:Exo;letter-spacing:0px;word-spacing:0px;fill:#003399;stroke-width:1px"
       d="m 137.68802,111.49006 h 1.64 V 97.850059 l 13.96,-0.28 v -1.16 l -13.96,-0.28 v -8.72 c 0,-2.36 1.04,-3.56 3.4,-3.56 h 12.16 v -1.16 l -12.16,-0.48 c -2.6,-0.08 -5.04,1.28 -5.04,5.2 z m 23.72001,-14.320001 v -13.28 h 9.88 c 2.6,0 5.28,0.76 5.28,6.6 0,6.08 -2.56,6.68 -5.28,6.68 z m -1.64,14.320001 h 1.64 V 98.450059 c 0.12,0.08 7.72,0.4 9.12,0.44 l 6.4,12.600001 h 1.72 l -6.32,-12.640001 c 2.28,-0.12 5.92,-0.8 5.92,-8.36 0,-7 -3.6,-8.28 -6.96,-8.28 h -11.52 z m 28.36,-11.08 5.92,-16.040001 5.64,16.040001 z m -5.88,11.08 h 1.92 l 3.36,-9.44 h 12.76 l 3.28,9.44 h 1.88 l -10.44,-29.280001 h -1.88 z m 28.16002,0 h 1.64 V 85.290059 l 17,26.200001 h 1.64 V 82.210059 h -1.64 v 26.200001 l -16.92,-26.200001 h -1.72 z m 25.60001,-14.720001 c 0,8.600001 2.32,14.960001 9.72,14.960001 2.08,0 6.16,-0.36 8.96,-0.88 v -1.16 c 0,0 -4.72,0.4 -8.92,0.4 -5.84,0 -8.12,-5 -8.12,-13.240001 0,-10.68 2.48,-13.32 8.08,-13.32 3.68,0 8.92,0.52 8.96,0.52 v -1.2 c -2.8,-0.52 -6.88,-0.96 -8.96,-0.96 -8.08,0 -9.72,5.64 -9.72,14.88 z m 24.08002,9.800001 c 0,4.52 2.8,5.16 5.44,5.04 l 11.76,-0.48 v -1.16 h -11.76 c -1.84,0 -3.8,-0.24 -3.8,-3.4 v -8.720001 l 13.96,-0.28 v -1.16 l -13.96,-0.28 v -8.72 c 0,-2.36 1.04,-3.56 3.4,-3.56 h 12.16 v -1.16 l -12.16,-0.48 c -2.6,-0.08 -5.04,1.28 -5.04,5.2 z"
       id="text238"
       aria-label="FRANCE" /><path
       fill="#58595B"
       d="m 57.7,27.9 h -47 c -0.6,0 -1.1,-0.5 -1.1,-1.1 V 14.6 c 0,-0.6 0.5,-1.1 1.1,-1.1 h 47 c 0.6,0 1.1,0.5 1.1,1.1 v 12.1 c 0,0.6 -0.4,1.2 -1.1,1.2 z"
       id="path4857"
       style="fill:#000d80;fill-opacity:1" /><path
       style="fill:#000d80;fill-opacity:1;stroke-width:1"
       d="M 2.2302659,42.951999 C 1.7361476,42.02873 1.7944242,30.838815 2.2969144,30.154551 2.6629389,29.656119 4.036722,29.621537 20.434618,29.697978 l 17.741684,0.08271 v 6.811539 6.811539 l -17.808333,0.08184 C 3.0155838,43.565339 2.5512043,43.551678 2.2302659,42.951999 Z"
       id="path1964"
       transform="translate(7.7,3)" /><path
       style="fill:#000d80;fill-opacity:1;stroke-width:1"
       d="M 106.13329,59.051402 C 100.58006,58.678237 96.037635,57.314158 92.029738,54.816145 86.01898,51.069805 82.290848,45.481827 80.717744,37.860959 79.793509,33.383518 80.037737,25.866608 81.237107,21.875922 83.499409,14.348522 87.812024,9.1642051 94.569511,5.8486589 99.736786,3.3133469 102.14357,2.8584404 110.4103,2.8545892 c 9.13614,-0.00426 11.09995,0.3958195 19.88019,4.0500781 l 0.87124,0.3626036 v 6.2668581 6.266857 h -0.80205 c -0.47683,0 -1.72936,-0.693689 -3.08895,-1.710759 -4.62528,-3.460028 -9.27694,-5.240341 -14.3259,-5.482899 -7.56877,-0.363612 -13.484372,2.706455 -16.439952,8.531973 -3.726811,7.345629 -2.215221,18.746409 3.133684,23.635006 3.303378,3.019103 6.786188,4.165488 13.385468,4.405891 l 4.51463,0.164462 v -5.584179 -5.584179 h -5.54428 -5.54428 v -4.910645 -4.910644 h 12.51766 12.51767 l -0.0827,13.364636 -0.0826,13.364636 -1.74248,0.609807 c -7.26507,2.542513 -16.30501,3.837061 -23.44437,3.35731 z"
       id="path1966"
       transform="translate(7.7,3)" /><path
       style="fill:#000d80;fill-opacity:1;stroke-width:1"
       d="m 148.31925,59.040307 c -4.29462,-0.510888 -8.38958,-3.382275 -10.26954,-7.200998 -0.9702,-1.970762 -1.02679,-2.27865 -1.0251,-5.577543 0.002,-3.174095 0.0846,-3.67126 0.91228,-5.466764 1.65784,-3.596356 5.47538,-6.250245 11.02512,-7.664481 2.298,-0.585599 8.15662,-1.351769 13.65282,-1.78547 l 2.46444,-0.194468 -0.20326,-1.160173 c -0.67446,-3.849615 -4.12562,-5.335774 -11.69558,-5.036413 -3.36804,0.133192 -4.25847,0.299635 -7.80462,1.458865 -2.20156,0.719685 -4.23314,1.308519 -4.51462,1.308519 -0.44917,0 -0.5118,-0.600887 -0.5118,-4.910645 0,-2.700854 0.0673,-4.910644 0.14965,-4.910644 0.0823,0 2.18517,-0.367374 4.67303,-0.816387 5.61528,-1.013454 13.329,-1.349817 17.87519,-0.779464 7.48424,0.938953 11.52588,3.274089 13.70391,7.91771 l 0.82408,1.756943 0.0928,16.078401 0.0928,16.078401 h -6.34992 -6.34992 v -2.059302 c 0,-1.132617 -0.0645,-2.059303 -0.14323,-2.059303 -0.0788,0 -1.0411,0.623766 -2.1385,1.386148 -1.0974,0.762383 -2.5741,1.678145 -3.28155,2.035028 -2.77648,1.400653 -7.35523,2.056851 -11.17849,1.60204 z m 13.63515,-9.407585 c 3.17445,-1.545596 3.10662,-1.405401 3.10662,-6.421274 v -4.423339 l -1.66328,0.187868 c -10.78509,1.218175 -12.90641,2.319236 -12.90906,6.700392 -10e-4,1.663637 0.12662,2.107673 0.85435,2.972538 1.34471,1.598095 2.36458,1.906484 5.95601,1.800984 2.52545,-0.07419 3.46985,-0.239963 4.65536,-0.817169 z"
       id="path1968"
       transform="translate(7.7,3)" /><path
       style="fill:#000d80;fill-opacity:1;stroke-width:1"
       d="M 187.23813,29.622276 V 1.1088552 h 6.49472 6.49473 v 28.5134208 28.51342 h -6.49473 -6.49472 z"
       id="path1970"
       transform="translate(7.7,3)" /><path
       style="fill:#000d80;fill-opacity:1;stroke-width:1"
       d="m 217.70191,59.040307 c -4.29462,-0.510888 -8.38959,-3.382275 -10.26954,-7.200998 -0.97004,-1.97043 -1.02689,-2.279578 -1.02689,-5.584205 0,-3.306542 0.0564,-3.612939 1.02963,-5.589772 2.8715,-5.832843 8.77948,-8.073236 24.58291,-9.322206 l 2.48499,-0.196393 -0.21201,-1.158248 c -0.70356,-3.843735 -4.17338,-5.333239 -11.72791,-5.034488 -3.36804,0.133192 -4.25848,0.299635 -7.80462,1.458865 -2.20156,0.719685 -4.23314,1.308519 -4.51463,1.308519 -0.44902,0 -0.51179,-0.598275 -0.51179,-4.877731 v -4.87773 l 2.77214,-0.507112 c 12.96876,-2.372399 23.34249,-1.821889 29.08506,1.543476 2.19716,1.287623 4.16299,3.735845 4.89016,6.090163 0.60119,1.946432 0.6369,2.930569 0.6369,17.552648 V 58.135696 H 240.78 234.44368 v -2.059302 c 0,-1.132617 -0.0644,-2.059303 -0.14323,-2.059303 -0.0788,0 -1.0411,0.623766 -2.13851,1.386148 -1.0974,0.762383 -2.57409,1.678145 -3.28154,2.035028 -2.77649,1.400653 -7.35523,2.056851 -11.17849,1.60204 z m 12.51382,-8.980289 c 0.87435,-0.259656 2.18333,-0.902102 2.90884,-1.427661 l 1.31911,-0.955554 v -4.444348 -4.444346 l -1.66328,0.187868 c -10.78509,1.218175 -12.90641,2.319236 -12.90906,6.700392 -0.001,1.663637 0.12661,2.107673 0.85435,2.972538 0.47055,0.559212 1.29031,1.206121 1.82169,1.437577 1.30715,0.569363 5.71318,0.554152 7.66835,-0.02645 z"
       id="path1972"
       transform="translate(7.7,3)" /><path
       style="fill:#000d80;fill-opacity:1;stroke-width:1"
       d="m 308.37331,72.313203 c 0.24029,-0.566309 1.66787,-3.930629 3.17241,-7.476273 1.50455,-3.545641 2.73554,-6.637744 2.73554,-6.871345 0,-0.517566 -15.1683,-39.484779 -15.5112,-39.84812 -0.19203,-0.203476 -15.08892,18.231357 -15.47827,19.154292 -0.055,0.130287 3.47357,4.813708 7.84119,10.407601 4.36761,5.593894 7.94112,10.237561 7.94112,10.319262 0,0.0817 -3.37968,0.110321 -7.51041,0.06361 l -7.5104,-0.08494 -4.18217,-5.851223 c -2.3002,-3.218173 -4.32277,-5.898087 -4.4946,-5.955366 -0.17184,-0.05728 -2.28803,2.607137 -4.70264,5.920922 l -4.39021,6.025066 -7.40357,0.0095 -7.40357,0.0095 0.8995,-1.188059 c 0.49473,-0.653432 4.07583,-5.217449 7.958,-10.142258 3.88217,-4.92481 7.05849,-9.021381 7.05849,-9.103491 0,-0.08211 -3.3917,-4.535463 -7.53711,-9.89634 -4.14542,-5.360877 -7.64672,-9.925257 -7.78069,-10.143068 -0.19232,-0.312691 1.34362,-0.393127 7.29951,-0.382271 l 7.54307,0.01375 4.1186,5.875599 c 2.26524,3.231579 4.21626,5.936851 4.33562,6.011715 0.11935,0.07487 2.15305,-2.568032 4.51932,-5.873103 l 4.30232,-6.009221 7.36127,-0.09545 c 4.04869,-0.0525 10.35172,-0.02416 14.00672,0.06296 l 6.64546,0.158408 4.89938,13.227453 c 2.69465,7.275099 5.00147,13.062251 5.12626,12.860338 0.12479,-0.201913 2.27182,-6.189564 4.77118,-13.305892 l 4.54429,-12.938779 6.60782,-7.63e-4 c 6.15842,-7.13e-4 6.5942,0.03694 6.40758,0.553663 -0.11013,0.304935 -5.22216,12.919917 -11.36006,28.033292 l -11.15982,27.478862 -7.0534,0.0049 -7.0534,0.0049 0.43687,-1.029651 z"
       id="path1974"
       transform="translate(7.7,3)" /><path
       style="fill:#000d80;fill-opacity:1;stroke-width:1"
       d="M 202.7621,93.756428 V 79.320266 l 0.84567,0.100248 c 0.73406,0.08702 1.9204,1.765284 8.98993,12.717728 4.47936,6.939613 8.30454,12.777738 8.50041,12.973608 0.26362,0.26362 0.35612,-3.03427 0.35612,-12.696686 0,-12.8416 0.0103,-13.05281 0.63363,-13.05281 0.62435,0 0.63364,0.21121 0.63364,14.415118 v 14.415118 l -0.71284,-0.006 c -0.58891,-0.005 -2.17241,-2.26069 -9.10845,-12.976107 l -8.39562,-12.970297 -0.0827,12.976112 -0.0827,12.976112 h -0.78852 -0.78853 z"
       id="path1976"
       transform="translate(7.7,3)" /><path
       style="fill:#000d80;fill-opacity:1;stroke-width:1"
       d="m 234.80392,108.09885 c -2.6236,-1.00659 -4.64055,-3.5835 -5.62998,-7.19302 -0.80265,-2.928133 -0.81253,-11.951288 -0.0163,-14.882534 1.61866,-5.958904 4.58042,-7.519217 12.737,-6.710116 4.44826,0.44125 4.90485,0.554011 4.90485,1.211337 0,0.370141 -0.29592,0.416332 -1.50488,0.234904 -0.82768,-0.124209 -3.42953,-0.239794 -5.78189,-0.256855 -3.86185,-0.02801 -4.40638,0.03811 -5.60981,0.681114 -1.38012,0.737416 -2.69408,2.564599 -3.28456,4.567496 -0.65475,2.220904 -0.97646,7.84308 -0.64004,11.185672 0.41498,4.123272 1.29326,6.516232 3.0285,8.251482 1.87579,1.87579 3.44655,2.20185 9.24827,1.91979 3.8303,-0.18621 4.54441,-0.14981 4.54441,0.23165 0,0.58618 -1.58587,0.82265 -6.81154,1.0157 -2.9272,0.10813 -4.42681,0.0339 -5.18404,-0.25662 z"
       id="path1978"
       transform="translate(7.7,3)" /><path
       style="fill:#000d80;fill-opacity:1;stroke-width:1"
       d="m 255.13445,108.16991 c -0.5561,-0.16645 -1.34022,-0.76407 -1.74248,-1.32804 l -0.73138,-1.0254 V 94.03849 c 0,-11.478368 0.017,-11.80074 0.66675,-12.672631 1.48023,-1.986198 1.93418,-2.07515 9.30364,-1.823076 5.28343,0.180722 6.66244,0.316784 6.66244,0.657363 0,0.345855 -1.21824,0.435619 -6.25712,0.461051 -3.44141,0.01737 -6.60067,0.127688 -7.02059,0.245153 -0.41991,0.117466 -1.06146,0.612306 -1.42567,1.099646 -0.59673,0.798485 -0.67271,1.400594 -0.76865,6.091162 l -0.10646,5.20509 h 3.62135 c 6.01247,0 10.37306,0.350596 10.37306,0.834006 0,0.334471 -1.41497,0.438433 -6.89075,0.506283 l -6.89074,0.08538 v 5.274103 c 0,7.3563 -0.15729,7.23551 9.42527,7.23836 3.55979,0.001 5.9403,0.12297 5.9403,0.30422 0,0.45162 -1.48655,0.60282 -7.60358,0.77337 -3.11272,0.0868 -5.98772,0.0219 -6.55539,-0.14806 z"
       id="path1980"
       transform="translate(7.7,3)" /><path
       style="fill:#000d80;fill-opacity:1;stroke-width:1"
       d="m 174.96453,107.79657 c 0.0825,-0.21781 2.48576,-6.70317 5.34056,-14.411909 5.04544,-13.624064 5.21396,-14.01598 6.0279,-14.019099 0.50454,-0.0019 0.92486,0.217151 1.05752,0.551219 0.45855,1.154685 9.98572,27.994879 9.98572,28.132019 0,0.0791 -0.33344,0.14379 -0.74097,0.14379 -0.6693,0 -0.89149,-0.43671 -2.29692,-4.51462 l -1.55594,-4.51463 -6.53374,-0.08551 -6.53374,-0.08551 -1.50724,4.20412 c -0.82899,2.31226 -1.57516,4.38232 -1.65817,4.60013 -0.083,0.21781 -0.50733,0.39602 -0.94295,0.39602 -0.50243,0 -0.73719,-0.14481 -0.64203,-0.39602 z m 17.02583,-10.592241 c 0,-0.664886 -5.55816,-15.891261 -5.73031,-15.697964 -0.18149,0.203793 -1.20843,2.926623 -5.0165,13.300758 l -0.95943,2.61373 h 5.85312 c 3.21922,0 5.85312,-0.09744 5.85312,-0.216524 z"
       id="path1982"
       transform="translate(7.7,3)" /><path
       style="fill:#000d80;fill-opacity:1;stroke-width:1"
       d="M 152.07158,93.777472 V 79.362354 l 6.57392,0.01391 c 8.46416,0.0179 9.38121,0.306209 10.92215,3.433732 0.60624,1.23043 0.71979,1.966654 0.71426,4.631164 -0.0112,5.38848 -1.22965,7.398202 -4.982,8.217175 l -0.86997,0.189875 3.00848,6.01061 c 1.65466,3.30584 3.00847,6.08333 3.00847,6.17219 0,0.0889 -0.2856,0.16158 -0.63468,0.16158 -0.50782,0 -1.2493,-1.23116 -3.70977,-6.1598 l -3.0751,-6.159798 -1.9137,-0.17269 c -1.05254,-0.09498 -3.16119,-0.210053 -4.68589,-0.255719 l -2.77219,-0.08303 5e-5,6.415517 4e-5,6.41552 h -0.79203 -0.79204 z M 167.2607,93.16185 c 1.23458,-1.183731 1.59813,-2.514568 1.60035,-5.858279 0.002,-3.161669 -0.67965,-4.915993 -2.28842,-5.888835 -0.91421,-0.552829 -1.73667,-0.639547 -6.97668,-0.735592 l -5.9403,-0.10888 v 6.859682 6.859682 l 6.31628,-0.09767 6.31627,-0.09767 z"
       id="path1984"
       transform="translate(7.7,3)" /><path
       style="fill:#000d80;fill-opacity:1;stroke-width:1"
       d="m 130.21129,95.435812 c 0,-14.32406 4.8e-4,-14.327288 2.31211,-15.52692 1.05855,-0.549339 1.64968,-0.577053 7.81217,-0.366263 5.28716,0.180849 6.66695,0.316929 6.66695,0.657517 0,0.347172 -1.22021,0.429471 -6.36764,0.429471 -9.28887,0 -9.15633,-0.11304 -9.15633,7.809263 v 4.863368 h 3.5941 c 6.02702,0 10.34579,0.350729 10.34579,0.840185 0,0.345285 -1.33486,0.427078 -6.96994,0.427078 h -6.96995 v 6.811539 c 0,6.60033 -0.0197,6.81154 -0.63363,6.81154 -0.62314,0 -0.63363,-0.21121 -0.63363,-12.756778 z"
       id="path1986"
       transform="translate(7.7,3)" /></g></svg>
