<?xml version="1.0" encoding="UTF-8" standalone="no"?>
<!-- Generator: Adobe Illustrator 18.1.1, SVG Export Plug-In . SVG Version: 6.00 Build 0)  -->

<svg
   version="1.1"
   id="Layer_1"
   x="0px"
   y="0px"
   viewBox="7.7 3 527.86273 123.73236"
   enable-background="new 7.7 3 347 110.6"
   xml:space="preserve"
   inkscape:version="1.4 (e7c3feb100, 2024-10-09)"
   sodipodi:docname="useGalaxy.fr.svg"
   width="527.86273"
   height="123.73236"
   xmlns:inkscape="http://www.inkscape.org/namespaces/inkscape"
   xmlns:sodipodi="http://sodipodi.sourceforge.net/DTD/sodipodi-0.dtd"
   xmlns="http://www.w3.org/2000/svg"
   xmlns:svg="http://www.w3.org/2000/svg"
   xmlns:rdf="http://www.w3.org/1999/02/22-rdf-syntax-ns#"
   xmlns:cc="http://creativecommons.org/ns#"
   xmlns:dc="http://purl.org/dc/elements/1.1/"><metadata
     id="metadata4902"><rdf:RDF><cc:Work
         rdf:about=""><dc:format>image/svg+xml</dc:format><dc:type
           rdf:resource="http://purl.org/dc/dcmitype/StillImage" /></cc:Work></rdf:RDF></metadata><defs
     id="defs4900" /><sodipodi:namedview
     pagecolor="#ffffff"
     bordercolor="#666666"
     borderopacity="1"
     objecttolerance="10"
     gridtolerance="10"
     guidetolerance="10"
     inkscape:pageopacity="0"
     inkscape:pageshadow="2"
     inkscape:window-width="2560"
     inkscape:window-height="1364"
     id="namedview4898"
     showgrid="false"
     inkscape:zoom="2.6125878"
     inkscape:cx="278.26816"
     inkscape:cy="118.27354"
     inkscape:window-x="3840"
     inkscape:window-y="24"
     inkscape:window-maximized="1"
     inkscape:current-layer="g1911"
     showguides="true"
     inkscape:guide-bbox="true"
     fit-margin-top="10"
     fit-margin-left="10"
     fit-margin-right="10"
     fit-margin-bottom="10"
     inkscape:showpageshadow="2"
     inkscape:pagecheckerboard="0"
     inkscape:deskcolor="#d1d1d1"><sodipodi:guide
       position="9.605502,44.744135"
       orientation="1,0"
       id="guide6149"
       inkscape:locked="false" /><sodipodi:guide
       position="67.139611,56.589395"
       orientation="0,1"
       id="guide6151"
       inkscape:locked="false" /><sodipodi:guide
       position="51.345934,114.1235"
       orientation="0,1"
       id="guide6170"
       inkscape:locked="false" /></sodipodi:namedview><linearGradient
     id="SVGID_1_"
     gradientUnits="userSpaceOnUse"
     x1="61.400002"
     y1="282.5"
     x2="175.7"
     y2="282.5"
     gradientTransform="matrix(0.74308096,0,0,-0.74308096,-34.967541,296.65119)"><stop
       offset="0.1656"
       style="stop-color:#D0BD2B"
       id="stop4862" /><stop
       offset="1"
       style="stop-color:#D0BD2B;stop-opacity:0"
       id="stop4864" /></linearGradient><g
     id="g6106"
     transform="translate(36.116318,3.3599437)"><path
       inkscape:connector-curvature="0"
       style="fill:#003399;fill-opacity:1"
       id="path4859"
       d="m 42.788726,67.052112 -59.136141,0 c -1.034451,0 -2.068903,-0.862043 -2.068903,-2.068903 l 0,-20.68903 c 0,-1.034451 0.862043,-2.068903 2.068903,-2.068903 l 59.136141,0 c 1.034452,0 2.068903,0.862044 2.068903,2.068903 l 0,20.68903 c 0,1.20686 -0.862042,2.068903 -2.068903,2.068903 z" /><path
       inkscape:connector-curvature="0"
       style="fill:url(#SVGID_1_)"
       id="path4866"
       d="m 93.649257,99.120101 -81.032032,0 c -1.034451,0 -2.068902,-0.86204 -2.068902,-2.0689 l 0,-20.689026 c 0,-1.034451 0.862043,-2.068903 2.068902,-2.068903 l 80.859623,0 c 1.034452,0 2.068903,0.862043 2.068903,2.068903 l 0,20.689026 c 0,1.20686 -0.862042,2.0689 -1.896494,2.0689 z" /></g><g
     style="font-style:normal;font-weight:normal;font-size:42.94429779px;line-height:125%;font-family:sans-serif;letter-spacing:0px;word-spacing:0px;fill:#003399;fill-opacity:1;stroke:none;stroke-width:1px;stroke-linecap:butt;stroke-linejoin:miter;stroke-opacity:1"
     id="text6058"
     transform="translate(5.6570828,-275.84971)" /><g
     id="g6182"
     transform="translate(-4.114756,-275.84971)"><g
       transform="translate(176.87748,285.20965)"
       style="fill:#003399;fill-opacity:1"
       id="g4884"><path
         inkscape:connector-curvature="0"
         style="fill:#003399;fill-opacity:1"
         id="path4886"
         d="m 139.2,58.2 c -2.5,0.9 -5.7,1.9 -9.7,2.8 -4.1,0.9 -8.1,1.4 -12.1,1.4 -9.3,0 -16.6,-2.5 -21.9,-7.6 -5.3,-5.1 -7.9,-12.1 -7.9,-21 0,-8.5 2.7,-15.4 8,-20.6 5.3,-5.2 12.8,-7.8 22.3,-7.8 3.6,0 7,0.3 10.3,1 3.3,0.6 6.9,1.9 10.9,3.9 l 0,12.8 -1.6,0 c -0.7,-0.5 -1.7,-1.2 -3,-2.2 -1.3,-1 -2.6,-1.8 -3.8,-2.4 -1.4,-0.8 -3.1,-1.5 -5,-2 -1.9,-0.6 -3.9,-0.9 -6.1,-0.9 -2.5,0 -4.8,0.4 -6.8,1.1 -2,0.7 -3.9,1.9 -5.5,3.4 -1.6,1.5 -2.8,3.4 -3.7,5.6 -0.9,2.3 -1.3,4.9 -1.3,7.8 0,6.1 1.6,10.7 4.8,13.9 3.2,3.2 8,4.8 14.3,4.8 0.6,0 1.1,0 1.8,0 0.6,0 1.2,0 1.8,-0.1 l 0,-10.7 -10.9,0 0,-10.3 25.3,0 -0.2,27.1 0,0 z" /><path
         inkscape:connector-curvature="0"
         style="fill:#003399;fill-opacity:1"
         id="path4888"
         d="m 172.7,57 c -0.7,0.6 -1.6,1.2 -2.7,1.9 -1,0.8 -2.1,1.4 -3,1.8 -1.3,0.6 -2.7,1 -4.1,1.3 -1.4,0.3 -2.9,0.4 -4.6,0.4 -3.9,0 -7.2,-1.2 -9.9,-3.7 -2.7,-2.4 -4,-5.5 -4,-9.3 0,-3 0.7,-5.5 2,-7.4 1.3,-1.9 3.3,-3.4 5.7,-4.5 2.4,-1.1 5.5,-1.9 9.1,-2.4 3.6,-0.5 7.4,-0.8 11.3,-1 l 0,-0.2 c 0,-2.3 -0.9,-3.9 -2.8,-4.7 -1.9,-0.9 -4.6,-1.3 -8.2,-1.3 -2.2,0 -4.5,0.4 -7,1.2 -2.5,0.8 -4.3,1.4 -5.3,1.8 l -1.2,0 0,-10 c 1.4,-0.4 3.7,-0.8 6.9,-1.3 3.1,-0.5 6.3,-0.8 9.5,-0.8 7.5,0 13,1.2 16.3,3.5 3.3,2.3 5,5.9 5,10.9 l 0,28.1 -13.1,0 0.1,-4.3 0,0 z m 0,-6.5 0,-8.5 c -1.8,0.1 -3.7,0.3 -5.8,0.6 -2.1,0.3 -3.7,0.6 -4.7,0.9 -1.3,0.4 -2.3,1 -3,1.8 -0.7,0.8 -1,1.9 -1,3.1 0,0.9 0.1,1.6 0.2,2.1 0.1,0.6 0.5,1 1.1,1.6 0.6,0.5 1.2,0.9 2,1.1 0.8,0.2 2,0.3 3.7,0.3 1.3,0 2.7,-0.3 4.1,-0.8 1.2,-0.6 2.4,-1.3 3.4,-2.2 z" /><path
         inkscape:connector-curvature="0"
         style="fill:#003399;fill-opacity:1"
         id="path4890"
         d="m 208,61.3 -13.3,0 0,-57.3 13.3,0 0,57.3 z" /><path
         inkscape:connector-curvature="0"
         style="fill:#003399;fill-opacity:1"
         id="path4892"
         d="m 242.1,57 c -0.7,0.6 -1.6,1.2 -2.7,1.9 -1,0.8 -2.1,1.4 -3,1.8 -1.3,0.6 -2.7,1 -4.1,1.3 -1.4,0.3 -2.9,0.4 -4.6,0.4 -3.9,0 -7.2,-1.2 -9.9,-3.7 -2.7,-2.4 -4,-5.5 -4,-9.3 0,-3 0.7,-5.5 2,-7.4 1.3,-1.9 3.3,-3.4 5.7,-4.5 2.5,-1.1 5.5,-1.9 9.1,-2.4 3.6,-0.5 7.4,-0.8 11.3,-1 l 0,-0.2 c 0,-2.3 -0.9,-3.9 -2.8,-4.7 -1.9,-0.9 -4.6,-1.3 -8.2,-1.3 -2.2,0 -4.5,0.4 -7,1.2 -2.5,0.8 -4.3,1.4 -5.3,1.8 l -1.2,0 0,-10 c 1.4,-0.4 3.7,-0.8 6.9,-1.3 3.1,-0.5 6.3,-0.8 9.5,-0.8 7.5,0 13,1.2 16.3,3.5 3.4,2.3 5,5.9 5,10.9 l 0,28.1 -13.1,0 0.1,-4.3 0,0 z m 0,-6.5 0,-8.5 c -1.8,0.1 -3.7,0.3 -5.8,0.6 -2.1,0.3 -3.7,0.6 -4.7,0.9 -1.3,0.4 -2.3,1 -3,1.8 -0.7,0.8 -1,1.9 -1,3.1 0,0.9 0.1,1.6 0.2,2.1 0.1,0.6 0.5,1 1.1,1.6 0.6,0.5 1.2,0.9 2,1.1 0.8,0.2 2,0.3 3.7,0.3 1.3,0 2.7,-0.3 4.1,-0.8 1.2,-0.6 2.4,-1.3 3.4,-2.2 z" /><path
         inkscape:connector-curvature="0"
         style="fill:#003399;fill-opacity:1"
         id="path4894"
         d="m 307.3,61.3 -15.5,0 L 283,49 273.9,61.4 258.7,61.4 275,40.7 259,20 l 15.5,0 8.7,12.2 8.7,-12.2 15.2,0 -16.1,20.4 16.3,20.9 z" /><path
         inkscape:connector-curvature="0"
         style="fill:#003399;fill-opacity:1"
         id="path4896"
         d="m 329.8,46.7 9.4,-26.7 13.6,0 -23,56.5 -14.4,0 6.6,-15.5 -16,-41 13.9,0 9.9,26.7 z" /></g><path
       inkscape:connector-curvature="0"
       id="path6173"
       style="font-style:normal;font-variant:normal;font-weight:bold;font-stretch:normal;font-size:75.15251923px;line-height:125%;font-family:Verdana;-inkscape-font-specification:Verdana;letter-spacing:0px;word-spacing:0px;fill:#003399;fill-opacity:1;stroke:none;stroke-width:1px;stroke-linecap:butt;stroke-linejoin:miter;stroke-opacity:1"
       d="m 164.7385,345.978 -13.2104,0 0,-4.55025 q -3.66956,2.78886 -6.71529,4.25668 -3.04573,1.43113 -7.26572,1.43113 -6.82537,0 -10.53163,-3.92643 -3.66955,-3.92642 -3.66955,-11.5958 l 0,-26.82445 13.28379,0 0,20.43943 q 0,3.11912 0.18348,5.21077 0.22017,2.05495 0.95408,3.41268 0.69722,1.35774 2.09165,1.98157 1.43113,0.62382 3.96312,0.62382 1.688,0 3.74295,-0.62382 2.05495,-0.62383 3.96312,-1.83478 l 0,-29.20967 13.2104,0 0,41.20912 z" /><path
       inkscape:connector-curvature="0"
       id="path6175"
       style="font-style:normal;font-variant:normal;font-weight:bold;font-stretch:normal;font-size:75.15251923px;line-height:125%;font-family:Verdana;-inkscape-font-specification:Verdana;letter-spacing:0px;word-spacing:0px;fill:#003399;fill-opacity:1;stroke:none;stroke-width:1px;stroke-linecap:butt;stroke-linejoin:miter;stroke-opacity:1"
       d="m 210.5283,332.91438 q 0,6.38502 -5.72451,10.31145 -5.72451,3.88973 -15.66901,3.88973 -5.50433,0 -9.98119,-1.02748 -4.47686,-1.02747 -7.19233,-2.27512 l 0,-10.86189 1.21095,0 q 0.99078,0.69722 2.27513,1.54121 1.32104,0.80731 3.70625,1.76139 2.05495,0.844 4.66033,1.46782 2.60539,0.58713 5.57773,0.58713 3.88973,0 5.7612,-0.84399 1.87148,-0.8807 1.87148,-2.56869 0,-1.50452 -1.10087,-2.16504 -1.10087,-0.69722 -4.18329,-1.32104 -1.46783,-0.33026 -3.99982,-0.69722 -2.4953,-0.40365 -4.55025,-0.95408 -5.61442,-1.46783 -8.32989,-4.55025 -2.71548,-3.11913 -2.71548,-7.74277 0,-5.94468 5.61443,-9.87111 5.65111,-3.96312 15.41213,-3.96312 4.62364,0 8.84363,0.95409 4.25669,0.91739 6.6419,1.98156 l 0,10.42154 -1.13756,0 q -2.93565,-2.01826 -6.71529,-3.26591 -3.74295,-1.28434 -7.59598,-1.28434 -3.19252,0 -5.39425,0.88069 -2.16504,0.8807 -2.16504,2.4953 0,1.46782 0.99078,2.23843 0.99078,0.77061 4.66034,1.54121 2.01826,0.40366 4.33008,0.80731 2.34851,0.36695 4.69703,0.95408 5.21077,1.35774 7.70607,4.29338 2.4953,2.89895 2.4953,7.26573 z" /><path
       inkscape:connector-curvature="0"
       id="path6177"
       style="font-style:normal;font-variant:normal;font-weight:bold;font-stretch:normal;font-size:75.15251923px;line-height:125%;font-family:Verdana;-inkscape-font-specification:Verdana;letter-spacing:0px;word-spacing:0px;fill:#003399;fill-opacity:1;stroke:none;stroke-width:1px;stroke-linecap:butt;stroke-linejoin:miter;stroke-opacity:1"
       d="m 258.51038,327.81369 -30.23715,0 q 0.29356,4.84382 3.66956,7.41251 3.41268,2.56869 10.01789,2.56869 4.18329,0 8.10972,-1.50452 3.92642,-1.50452 6.20155,-3.22921 l 1.46782,0 0,10.60502 q -4.47686,1.79808 -8.43998,2.60538 -3.96312,0.8073 -8.77024,0.8073 -12.4031,0 -19.0083,-5.57772 -6.60521,-5.57773 -6.60521,-15.88918 0,-10.20137 6.23825,-16.14605 6.27494,-5.98138 17.17353,-5.98138 10.05458,0 15.11857,5.10069 5.06399,5.06398 5.06399,14.60483 l 0,4.62364 z m -13.13702,-7.74276 q -0.11008,-4.1466 -2.05495,-6.23825 -1.94486,-2.09165 -6.05477,-2.09165 -3.81633,0 -6.27494,1.98156 -2.4586,1.98156 -2.75217,6.34834 l 17.13683,0 z" /></g><path
     style="font-weight:600;font-size:77.3333px;line-height:125%;font-family:'Craft Rounded';-inkscape-font-specification:'Craft Rounded, Semi-Bold';letter-spacing:0px;word-spacing:0px;fill:#003399;stroke-width:1px"
     d="m 385.69999,119.5576 q 0,-2.32 1.70134,-3.944 1.70133,-1.70133 4.09866,-1.70133 2.24267,0 3.86667,1.70133 1.70133,1.70133 1.70133,3.944 0,2.39733 -1.70133,4.09866 -1.624,1.624 -3.944,1.624 -2.39733,0 -4.09867,-1.624 -1.624,-1.70133 -1.624,-4.09866 z m 32.86662,-24.901323 h -2.47467 V 116.5416 q 0,4.64 -0.69599,6.10933 -0.54134,1.08267 -1.856,1.856 -1.23734,0.77333 -2.70667,0.77333 -1.392,0 -2.70666,-0.77333 -1.23734,-0.77333 -1.77867,-1.856 -0.696,-1.54667 -0.696,-6.10933 V 94.656277 h -0.928 q -1.93333,0 -3.17067,-1.005333 -1.15999,-1.082666 -1.15999,-2.861332 0,-1.623999 1.23733,-2.706665 1.23733,-1.082667 3.016,-1.082667 0.77333,0 1.00533,0.07733 v -3.325332 q 0,-11.135995 11.13599,-11.135995 6.18667,0 6.18667,4.407998 0,2.165332 -1.31467,3.247999 -0.85066,0.773333 -3.09333,0.850666 -1.392,0.154666 -2.088,1.391999 -0.38667,0.928 -0.38667,2.783999 v 1.778666 h 2.86134 q 1.93333,0 3.09333,1.082666 1.16,1.005333 1.16,2.706665 0,1.778666 -1.23733,2.783999 -1.23734,1.005333 -3.40267,1.005333 z m 18.40533,11.445323 v 10.51733 q 0,4.56267 -0.696,6.032 -1.08266,2.552 -4.48533,2.552 -3.40266,0 -4.48533,-2.552 -0.696,-1.46933 -0.696,-6.032 V 93.650944 q 0,-2.938665 0.464,-4.253331 1.16,-2.861332 4.79466,-2.861332 2.62934,0 3.712,1.469332 1.08267,1.469333 1.08267,4.949331 2.70666,-6.882663 8.66133,-6.882663 2.16533,0 3.63466,1.391999 1.46934,1.392 1.46934,3.402665 0,2.474666 -2.088,4.021332 -0.928,0.696 -3.86667,0.850666 -3.944,0.154667 -5.72266,2.629332 -1.77867,2.474665 -1.77867,7.733325 z"
     id="text867"
     aria-label=".fr" /><g
     id="g1911"
     transform="matrix(1.7240854,0,0,1.7231646,1.1487802,-10.262722)"
     style="stroke-width:0.580173"><path
       fill="#58595B"
       d="m 57.7,27.9 h -47 c -0.6,0 -1.1,-0.5 -1.1,-1.1 V 14.6 c 0,-0.6 0.5,-1.1 1.1,-1.1 h 47 c 0.6,0 1.1,0.5 1.1,1.1 v 12.1 c 0,0.6 -0.4,1.2 -1.1,1.2 z"
       id="path4857-6"
       style="fill:#000d80;fill-opacity:1;stroke-width:0.580173" /></g><path
     style="fill:#000d80;fill-opacity:1;stroke-width:1"
     d="m 10.793896,66.715461 c -0.33667,-0.336669 -0.459315,-3.501408 -0.459315,-11.852163 0,-10.872035 0.03384,-11.410961 0.740361,-11.789077 0.492293,-0.263468 10.796514,-0.396229 30.753038,-0.396229 28.589688,0 30.042711,0.03319 30.646143,0.699972 0.557968,0.616545 0.633468,1.988159 0.633468,11.508031 0,6.718295 -0.149932,11.088211 -0.396228,11.54842 -0.386659,0.722474 -1.133864,0.740361 -30.927192,0.740361 -23.235953,0 -30.640708,-0.109748 -30.990275,-0.459315 z"
     id="path2535"
     transform="translate(7.7,3)" /><path
     style="fill:#000d80;fill-opacity:1;stroke-width:1"
     d="m 120.76149,67.404885 c -4.59886,-1.454428 -7.51391,-4.763365 -8.56499,-9.722315 -0.27543,-1.29947 -0.42992,-7.316984 -0.42992,-16.745849 V 26.219215 h 6.48893 6.48892 l 0.11372,13.68375 c 0.10765,12.952818 0.15531,13.755311 0.89227,15.023419 1.2382,2.130605 2.84866,2.751404 6.68532,2.577043 2.44281,-0.111017 3.73035,-0.37897 5.16729,-1.075379 l 1.91381,-0.927521 0.10024,-14.640656 0.10024,-14.640656 h 6.50241 6.50241 v 20.286399 20.2864 h -6.48786 -6.48785 l -0.1148,-2.08873 -0.11479,-2.08873 -3.03737,1.959571 c -1.67055,1.077766 -4.05424,2.276057 -5.29708,2.662873 -2.65087,0.825044 -8.06708,0.912298 -10.4209,0.167887 z"
     id="path2537"
     transform="translate(7.7,3)" /><path
     style="fill:#000d80;fill-opacity:1;stroke-width:1"
     d="m 168.79815,67.345411 c -1.57889,-0.289402 -4.07641,-0.935593 -5.55005,-1.435978 l -2.67933,-0.909788 -0.1062,-5.419394 c -0.0677,-3.456802 0.0335,-5.419392 0.27964,-5.419392 0.21221,0 1.29346,0.57226 2.40277,1.271689 4.19768,2.64666 9.22563,4.087948 14.25005,4.084848 5.62898,-0.0035 7.8619,-1.018777 7.8619,-3.574783 0,-2.275276 -0.50155,-2.482348 -11.6494,-4.809634 -7.74236,-1.616337 -11.39879,-4.415712 -12.71052,-9.731203 -1.46728,-5.945812 1.59569,-11.125308 8.42918,-14.253784 5.94452,-2.72149 16.37761,-2.775642 24.94491,-0.129473 l 2.4687,0.762503 v 5.151911 c 0,2.833551 -0.12301,5.151911 -0.27337,5.151911 -0.15035,0 -1.60809,-0.694401 -3.23942,-1.543114 -5.34225,-2.779343 -11.8892,-3.792241 -16.17483,-2.502456 -2.39119,0.719642 -3.27812,1.563845 -3.27812,3.120207 0,2.270164 1.51433,3.000793 9.07671,4.379304 8.2547,1.504709 11.84709,3.148337 13.87697,6.34913 2.15047,3.390932 2.33918,7.687332 0.50753,11.554697 -1.70077,3.590994 -6.82493,6.839685 -12.50133,7.925757 -3.70853,0.709561 -12.00464,0.697608 -15.93579,-0.02296 z"
     id="path2539"
     transform="translate(7.7,3)" /><path
     style="fill:#000d80;fill-opacity:1;stroke-width:1"
     d="m 220.85382,67.381108 c -9.03998,-1.939675 -14.48886,-6.440446 -16.70025,-13.794392 -0.9599,-3.192162 -0.95949,-10.589657 7.7e-4,-13.779441 2.19861,-7.303296 7.40583,-12.182524 15.16843,-14.213018 3.40526,-0.890725 10.81281,-0.899513 14.11899,-0.01675 8.85551,2.364451 13.03109,8.601279 13.05049,19.492748 l 0.007,3.731932 h -15.11911 c -12.25903,0 -15.11911,0.09547 -15.11911,0.504671 0,1.395553 1.31794,4.637822 2.37424,5.840882 4.35809,4.963592 16.11766,5.224178 23.77472,0.526837 3.26062,-2.000276 3.32374,-1.924967 3.32374,3.965549 v 5.096507 l -2.39227,0.821381 c -5.22694,1.794665 -6.87347,2.064608 -13.49237,2.212014 -4.6122,0.102714 -7.23142,-0.01053 -8.99491,-0.388921 z m 12.71437,-27.382452 c -0.40862,-5.060528 -3.63547,-7.607623 -9.08938,-7.174644 -4.06399,0.322635 -6.86199,2.41691 -7.79565,5.834976 -0.84981,3.111087 -1.48543,2.897647 8.28536,2.782212 l 8.70784,-0.102876 z"
     id="path2541"
     transform="translate(7.7,3)" /><path
     style="fill:#000d80;fill-opacity:1;stroke-width:1"
     d="m 277.46652,68.335204 c -4.05857,-0.514731 -7.20358,-1.437713 -10.68123,-3.134678 -4.43149,-2.1624 -8.8461,-6.507322 -10.84013,-10.669019 -2.36615,-4.938336 -2.74942,-6.973939 -2.7363,-14.532851 0.011,-6.331618 0.0702,-6.865783 1.08078,-9.756764 3.4093,-9.752643 11.1085,-16.05992 21.70225,-17.778729 3.61006,-0.585722 11.61764,-0.493845 15.52712,0.178155 3.92084,0.673953 6.18938,1.359695 9.81058,2.965573 l 2.58364,1.145761 v 6.26433 c 0,5.371479 -0.0836,6.264331 -0.58644,6.264331 -0.32253,0 -1.91578,-0.926281 -3.54055,-2.058402 -5.44741,-3.795711 -9.45281,-5.245078 -14.6402,-5.297603 -5.71034,-0.05782 -9.74901,1.387145 -13.0203,4.658442 -4.23537,4.23537 -5.91514,11.321233 -4.3901,18.518961 1.9077,9.003723 7.22906,13.030715 17.90069,13.546545 l 4.49746,0.21739 v -5.606373 -5.606372 h -5.35867 -5.35867 v -4.975909 -4.97591 h 12.43977 12.43977 l -0.0382,12.535464 c -0.021,6.894505 -0.15718,12.962872 -0.30265,13.485262 -0.23077,0.828695 -0.79934,1.103921 -4.4593,2.158603 -7.57617,2.183214 -16.407,3.166856 -22.02937,2.453793 z"
     id="path2543"
     transform="translate(7.7,3)" /><path
     style="fill:#000d80;fill-opacity:1;stroke-width:1"
     d="m 319.97862,68.208096 c -2.79939,-0.632579 -5.26098,-2.120709 -7.34836,-4.442384 -2.26126,-2.51506 -3.13489,-5.246453 -2.89144,-9.039988 0.40478,-6.307309 3.88914,-9.963453 11.4717,-12.037267 2.92462,-0.799877 11.43548,-1.924277 14.56532,-1.924277 1.77416,0 1.82047,-0.0297 1.82047,-1.167294 0,-1.876358 -0.96963,-3.269763 -2.95597,-4.247868 -1.66951,-0.822096 -2.31131,-0.899383 -7.37861,-0.888554 -5.21782,0.01115 -5.7701,0.08562 -9.22588,1.243978 -2.02171,0.677664 -3.95944,1.232116 -4.30608,1.232116 -0.55135,0 -0.63024,-0.595557 -0.63024,-4.757391 v -4.757392 l 2.0095,-0.410971 c 11.0399,-2.257812 22.44207,-2.018006 28.26334,0.594424 2.62204,1.176703 4.98461,3.505138 6.16695,6.077851 0.86628,1.884992 0.88126,2.154446 0.99464,17.894135 l 0.11511,15.980324 h -6.335 -6.335 v -2.105192 c 0,-1.157856 -0.0915,-2.105193 -0.2034,-2.105193 -0.11187,0 -1.36063,0.779258 -2.77502,1.731686 -4.32992,2.915684 -10.38514,4.177054 -15.02203,3.129257 z m 13.89816,-8.855907 c 0.79627,-0.284077 2.04386,-0.922428 2.77241,-1.418558 l 1.32465,-0.902055 0.003,-4.450439 0.003,-4.450439 -1.81812,0.177363 c -4.69914,0.458416 -9.14492,1.348757 -10.47912,2.09862 -3.53372,1.986062 -3.3852,7.630869 0.24023,9.130446 1.21356,0.501962 6.36504,0.382196 7.95472,-0.184938 z"
     id="path2545"
     transform="translate(7.7,3)" /><path
     style="fill:#000d80;fill-opacity:1;stroke-width:1"
     d="M 359.79652,39.04175 V 10.525962 h 6.50696 6.50696 V 39.04175 67.557538 h -6.50696 -6.50696 z"
     id="path2547"
     transform="translate(7.7,3)" /><path
     style="fill:#000d80;fill-opacity:1;stroke-width:1"
     d="m 389.75521,68.302371 c -4.14391,-0.817875 -7.77657,-3.542599 -9.54672,-7.160651 -0.8661,-1.770253 -1.03955,-2.636549 -1.0454,-5.221454 -0.008,-3.500483 0.53489,-5.469227 2.12089,-7.692222 2.95391,-4.140304 8.77364,-6.194874 20.42501,-7.210748 l 5.35867,-0.467218 -0.10902,-1.320141 c -0.15546,-1.882587 -1.03301,-3.009322 -3.08105,-3.955922 -1.57939,-0.729992 -2.42744,-0.822574 -7.33589,-0.800862 -5.23564,0.02316 -5.74386,0.09363 -8.97103,1.243978 -5.12434,1.826603 -4.80841,2.059143 -4.80841,-3.539308 0,-4.200893 0.0785,-4.78214 0.66983,-4.958393 4.61999,-1.377087 17.62382,-2.197165 22.58778,-1.424485 6.68103,1.039957 10.54101,3.229959 12.52386,7.105562 l 1.15508,2.257682 0.11134,16.199675 0.11134,16.199674 h -6.33122 -6.33123 v -2.105192 c 0,-1.157856 -0.0857,-2.105193 -0.19049,-2.105193 -0.10478,0 -1.02668,0.600738 -2.04868,1.334968 -4.55275,3.270822 -10.22231,4.615451 -15.26466,3.62025 z m 14.88674,-9.655077 2.42571,-1.254999 0.10687,-4.602384 0.10686,-4.602384 -3.16896,0.29843 c -9.24672,0.870788 -12.23008,2.816968 -11.51005,7.508509 0.43786,2.852934 2.18465,3.904425 6.48952,3.906396 2.78366,0.0013 3.38885,-0.135417 5.55005,-1.253568 z"
     id="path2549"
     transform="translate(7.7,3)" /><path
     style="fill:#000d80;fill-opacity:1;stroke-width:1"
     d="m 480.74939,82.76035 c 0,-0.05922 1.46368,-3.545902 3.25262,-7.748172 l 3.25262,-7.640494 -7.68957,-19.715019 c -4.22927,-10.843261 -7.80292,-19.912171 -7.94146,-20.153132 -0.19571,-0.340407 -10.30755,11.993912 -15.08532,18.400909 -0.67022,0.898763 -0.65907,0.915708 7.35523,11.180921 l 8.02646,10.280794 -7.15206,0.104444 c -3.93363,0.05745 -7.34724,0.02955 -7.58579,-0.06199 -0.23855,-0.09154 -2.28094,-2.763256 -4.53863,-5.937145 -2.2577,-3.173888 -4.25016,-5.860477 -4.42769,-5.970197 -0.17753,-0.109721 -2.35124,2.558055 -4.83047,5.92839 l -4.50768,6.127881 h -7.19715 c -3.95844,0 -7.19716,-0.09874 -7.19716,-0.219414 0,-0.120674 3.53098,-4.689109 7.84663,-10.152072 4.31564,-5.462964 7.84662,-10.022256 7.84662,-10.13176 0,-0.175114 -8.63819,-11.420387 -13.87305,-18.060051 l -1.88611,-2.392264 7.59251,0.01657 7.59251,0.01657 4.1769,5.916243 c 2.29729,3.253934 4.3151,5.916244 4.48402,5.916244 0.16891,0 2.17772,-2.626706 4.46401,-5.837125 l 4.15689,-5.837124 13.99124,-0.100359 13.99123,-0.100359 3.08771,8.329748 c 1.69824,4.581361 3.89799,10.525845 4.88833,13.209966 0.99034,2.68412 1.90403,4.878703 2.03041,4.876851 0.12638,-0.0018 2.2967,-5.901175 4.82294,-13.109607 l 4.59314,-13.10624 6.63761,-0.104879 c 4.11347,-0.065 6.58793,0.03457 6.50696,0.261835 -0.0719,0.201692 -5.21182,12.862648 -11.42214,28.135457 l -11.29148,27.768742 -6.98542,0.0068 c -3.84197,0.0038 -6.98541,-0.0417 -6.98541,-0.100923 z"
     id="path2551"
     transform="translate(7.7,3)" /><path
     style="fill:#000d80;fill-opacity:1;stroke-width:1"
     d="m 421.37839,121.33577 c -1.98998,-1.08154 -2.06234,-1.74192 -2.06234,-18.82311 0,-15.388737 0.0189,-15.786389 0.8002,-16.841537 1.0932,-1.476359 3.49712,-2.295504 5.35519,-1.824801 1.84805,0.468166 2.84393,1.853468 3.1799,4.42337 l 0.2696,2.0622 1.0101,-1.948267 c 1.8597,-3.586974 4.85727,-5.408302 8.26829,-5.02383 3.39676,0.382864 5.24763,3.787331 3.69322,6.793245 -0.75939,1.468492 -2.13271,2.123092 -5.06984,2.416558 -2.71064,0.270837 -5.0599,1.313907 -5.90196,2.620464 -1.4054,2.180642 -1.58976,3.543045 -1.82875,13.514418 -0.25808,10.7675 -0.42401,11.6548 -2.36759,12.65986 -1.33803,0.69192 -4.04698,0.67745 -5.34602,-0.0285 z"
     id="path2553"
     transform="translate(7.7,3)" /><path
     style="fill:#000d80;fill-opacity:1;stroke-width:1"
     d="m 400.22714,121.11457 c -1.94038,-1.5263 -1.951,-1.6054 -2.15439,-16.04633 l -0.19139,-13.588061 -1.64415,-0.219427 c -2.06657,-0.275803 -3.20148,-1.368436 -3.25142,-3.130308 -0.0535,-1.888514 0.95782,-3.23791 2.79819,-3.733469 0.8475,-0.228208 1.68634,-0.325041 1.86408,-0.215187 0.17775,0.109855 0.40474,-1.49387 0.50441,-3.563833 0.13666,-2.838071 0.39085,-4.196587 1.03366,-5.524454 1.68198,-3.474507 4.99654,-5.239389 9.83989,-5.239389 4.14525,0 5.88827,1.180419 5.88827,3.987698 0,0.930119 -0.107,1.969948 -0.23777,2.31073 -0.3021,0.787271 -2.12389,1.739579 -3.32785,1.739579 -0.50836,0 -1.37813,0.356987 -1.93282,0.793305 -0.90263,0.710013 -1.00852,1.051612 -1.00852,3.25348 v 2.460173 h 2.32601 c 2.06051,0 2.45373,0.127712 3.44486,1.118844 1.50426,1.504259 1.50426,3.147774 0,4.652033 -0.98617,0.986179 -1.38919,1.118844 -3.39885,1.118844 h -2.28002 l -0.17118,13.300992 c -0.18915,14.69757 -0.32191,15.56772 -2.551,16.72042 -1.67697,0.8672 -4.31715,0.77413 -5.55001,-0.19564 z"
     id="path2555"
     transform="translate(7.7,3)" /><path
     style="fill:#000d80;fill-opacity:1;stroke-width:1"
     d="m 380.65706,121.14903 c -2.38421,-1.56907 -3.16504,-4.82239 -1.72449,-7.18507 2.09955,-3.44355 6.88379,-3.71142 9.16131,-0.51294 1.7231,2.41987 1.34655,5.26041 -0.96655,7.29134 -1.11995,0.98333 -1.64439,1.16702 -3.3258,1.1649 -1.34123,-0.002 -2.37293,-0.25047 -3.14447,-0.75823 z"
     id="path2557"
     transform="translate(7.7,3)" /></svg>
