<?xml version="1.0" encoding="UTF-8" standalone="no"?>
<!-- Created with Inkscape (http://www.inkscape.org/) -->

<svg
   xmlns:dc="http://purl.org/dc/elements/1.1/"
   xmlns:cc="http://creativecommons.org/ns#"
   xmlns:rdf="http://www.w3.org/1999/02/22-rdf-syntax-ns#"
   xmlns:svg="http://www.w3.org/2000/svg"
   xmlns="http://www.w3.org/2000/svg"
   xmlns:sodipodi="http://sodipodi.sourceforge.net/DTD/sodipodi-0.dtd"
   xmlns:inkscape="http://www.inkscape.org/namespaces/inkscape"
   width="411.23816mm"
   height="270.93329mm"
   viewBox="0 0 1457.1431 959.99986"
   id="svg4492"
   version="1.1"
   inkscape:version="0.91 r13725"
   sodipodi:docname="freiburg-galaxy.inv.svg"
   inkscape:export-filename="/Users/bebatut/Documents/usegalaxy-eu/branding/freiburg-galaxy.inv/freiburg-galaxy.inv.1024.png"
   inkscape:export-xdpi="63.247051"
   inkscape:export-ydpi="63.247051">
  <defs
     id="defs4494">
    <clipPath
       clipPathUnits="userSpaceOnUse"
       id="clipPath4598-2-3">
      <rect
         style="fill:#58585a;fill-opacity:1;stroke:none"
         id="rect4600-7-7"
         width="479.73123"
         height="464.00232"
         x="-1905.2135"
         y="204.24995" />
    </clipPath>
    <clipPath
       clipPathUnits="userSpaceOnUse"
       id="clipPath4799-3">
      <rect
         style="fill:#ffffff;fill-opacity:1;stroke:#2c3143;stroke-width:1.17095327;stroke-opacity:1"
         id="rect4801-1"
         width="1211.1003"
         height="351.28598"
         x="915.96112"
         y="68.381065" />
    </clipPath>
    <clipPath
       clipPathUnits="userSpaceOnUse"
       id="clipPath4781-8">
      <rect
         style="fill:#ffffff;fill-opacity:1;stroke:#2c3143;stroke-width:1.17095327;stroke-opacity:1"
         id="rect4783-4"
         width="317.0015"
         height="298.07605"
         x="597.30927"
         y="103.28741" />
    </clipPath>
    <linearGradient
       id="SVGID_1_"
       gradientUnits="userSpaceOnUse"
       x1="61.400002"
       y1="282.5"
       x2="175.7"
       y2="282.5"
       gradientTransform="matrix(1.2936326,0,0,-1.2936327,-162.48795,799.60412)">
      <stop
         offset="0.1656"
         style="stop-color:#D0BD2B;stop-opacity:0"
         id="stop4862" />
      <stop
         offset="1"
         style="stop-color:#D0BD2B;stop-opacity:0"
         id="stop4864" />
    </linearGradient>
  </defs>
  <sodipodi:namedview
     id="base"
     pagecolor="#ffffff"
     bordercolor="#666666"
     borderopacity="1.0"
     inkscape:pageopacity="0.0"
     inkscape:pageshadow="2"
     inkscape:zoom="0.35"
     inkscape:cx="387.29856"
     inkscape:cy="336.45915"
     inkscape:document-units="px"
     inkscape:current-layer="layer1"
     showgrid="false"
     inkscape:window-width="1285"
     inkscape:window-height="768"
     inkscape:window-x="0"
     inkscape:window-y="0"
     inkscape:window-maximized="0"
     fit-margin-top="0"
     fit-margin-left="0"
     fit-margin-right="0"
     fit-margin-bottom="0"
     showguides="true"
     inkscape:guide-bbox="true">
    <sodipodi:guide
       position="1417.1429,1060"
       orientation="1,0"
       id="guide4207" />
    <sodipodi:guide
       position="357.14287,1117.1429"
       orientation="1,0"
       id="guide4209" />
    <sodipodi:guide
       position="169.70563,290.92395"
       orientation="0,1"
       id="guide4211" />
    <sodipodi:guide
       position="782.85716,128.57143"
       orientation="0,1"
       id="guide4213" />
  </sodipodi:namedview>
  <metadata
     id="metadata4497">
    <rdf:RDF>
      <cc:Work
         rdf:about="">
        <dc:format>image/svg+xml</dc:format>
        <dc:type
           rdf:resource="http://purl.org/dc/dcmitype/StillImage" />
        <dc:title />
      </cc:Work>
    </rdf:RDF>
  </metadata>
  <g
     inkscape:label="Layer 1"
     inkscape:groupmode="layer"
     id="layer1"
     transform="translate(608.57149,-326.64801)">
    <rect
       style="fill:#2c3143;fill-opacity:1;stroke:none"
       id="rect4440"
       width="1457.1431"
       height="959.99982"
       x="-608.57153"
       y="326.64801" />
    <g
       transform="translate(-556.6868,278.21289)"
       style="font-style:normal;font-weight:normal;font-size:180px;line-height:125%;font-family:sans-serif;text-align:center;letter-spacing:0px;word-spacing:0px;text-anchor:middle;fill:#ffffff;fill-opacity:1;stroke:none;stroke-width:1px;stroke-linecap:butt;stroke-linejoin:miter;stroke-opacity:1"
       id="flowRoot3344-4-7-5">
      <path
         d="m 300.08043,573.16031 0,-108.36 q 0,-12.42 6.3,-17.82 6.3,-5.58 15.3,-5.58 0.54,0 1.08,0 l 54.72,2.16 0,5.22 -54.72,0 q -15.3,0 -15.3,16.02 l 0,39.24 62.82,1.26 0,5.22 -62.82,1.26 0,61.38 -7.38,0 z"
         style="font-style:normal;font-variant:normal;font-weight:200;font-stretch:normal;font-size:180px;font-family:Exo;-inkscape-font-specification:'Exo Ultra-Light';text-align:center;text-anchor:middle;fill:#ffffff;fill-opacity:1"
         id="path4216" />
      <path
         d="m 399.47137,573.16031 0,-131.76 51.84,0 q 17.1,0 24.66,10.44 6.66,9.54 6.66,26.82 0,26.64 -12.96,34.02 -5.76,3.24 -13.68,3.6 l 28.44,56.88 -7.74,0 -28.8,-56.7 q -39.78,-1.08 -41.04,-1.98 l 0,58.68 -7.38,0 z m 7.38,-64.44 44.46,0 q 5.4,0 9,-0.9 3.6,-0.9 7.2,-3.78 7.56,-5.76 7.56,-24.48 0,-18.72 -6.48,-24.66 -6.48,-5.94 -17.28,-5.94 l -44.46,0 0,59.76 z"
         style="font-style:normal;font-variant:normal;font-weight:200;font-stretch:normal;font-size:180px;font-family:Exo;-inkscape-font-specification:'Exo Ultra-Light';text-align:center;text-anchor:middle;fill:#ffffff;fill-opacity:1"
         id="path4218" />
      <path
         d="m 508.20543,551.02031 0,-86.22 q 0,-12.42 6.3,-17.82 6.3,-5.58 15.3,-5.58 0.54,0 1.08,0 l 54.72,2.16 0,5.22 -54.72,0 q -15.3,0 -15.3,16.02 l 0,39.24 62.82,1.26 0,5.22 -62.82,1.26 0,39.24 q 0,10.26 5.58,13.14 4.5,2.16 11.52,2.16 l 52.92,0 0,5.22 -52.92,2.16 q -1.08,0 -3.42,0 -2.34,0 -5.94,-0.54 -3.42,-0.72 -7.2,-2.88 -7.92,-4.5 -7.92,-19.26 z"
         style="font-style:normal;font-variant:normal;font-weight:200;font-stretch:normal;font-size:180px;font-family:Exo;-inkscape-font-specification:'Exo Ultra-Light';text-align:center;text-anchor:middle;fill:#ffffff;fill-opacity:1"
         id="path4220" />
      <path
         d="m 611.91637,573.16031 0,-131.76 7.38,0 0,131.76 -7.38,0 z"
         style="font-style:normal;font-variant:normal;font-weight:200;font-stretch:normal;font-size:180px;font-family:Exo;-inkscape-font-specification:'Exo Ultra-Light';text-align:center;text-anchor:middle;fill:#ffffff;fill-opacity:1"
         id="path4222" />
      <path
         d="m 648.47887,573.16031 0,-131.76 47.34,0 q 18.36,0 26.28,9.18 7.92,9.18 7.92,22.5 0,13.32 -5.94,21.42 -5.76,8.1 -14.94,9.72 7.56,1.8 14.58,10.08 7.02,8.28 7.02,22.14 0,15.12 -7.02,25.2 -8.1,11.52 -27.9,11.52 l -47.34,0 z m 7.56,-7.56 39.78,0 q 27.54,0 27.54,-29.52 0,-11.88 -7.74,-19.98 -7.74,-8.1 -19.26,-8.1 -0.36,0 -0.54,0 l -39.78,0 0,57.6 z m 0,-65.16 39.78,0 q 12.06,0 19.26,-6.84 7.56,-6.84 7.56,-20.16 0,-24.66 -26.82,-24.66 l -39.78,0 0,51.66 z"
         style="font-style:normal;font-variant:normal;font-weight:200;font-stretch:normal;font-size:180px;font-family:Exo;-inkscape-font-specification:'Exo Ultra-Light';text-align:center;text-anchor:middle;fill:#ffffff;fill-opacity:1"
         id="path4224" />
      <path
         d="m 755.70543,515.56031 0,-74.16 7.38,0 0,74.16 q 0,18.54 2.52,29.52 2.52,10.8 9,15.3 6.48,4.5 11.52,5.4 5.22,0.9 16.56,0.9 l 0.18,0 q 20.7,0 27.18,-7.2 8.1,-9 10.08,-23.04 1.26,-9 1.26,-20.88 l 0,-74.16 7.56,0 0,74.16 q 0,28.44 -7.2,41.04 -2.52,4.32 -4.86,7.38 -2.16,2.88 -5.94,4.86 -3.78,1.98 -6.48,3.06 -2.52,0.9 -7.02,1.44 -5.94,0.72 -10.44,0.72 -4.5,0 -7.56,0 -3.06,0 -5.76,-0.18 -2.52,0 -7.38,-0.54 -4.68,-0.36 -7.2,-1.26 -2.52,-1.08 -6.3,-3.06 -3.78,-2.16 -5.94,-5.04 -1.98,-2.88 -4.5,-7.2 -2.52,-4.5 -3.78,-10.26 -2.88,-14.58 -2.88,-30.96 z"
         style="font-style:normal;font-variant:normal;font-weight:200;font-stretch:normal;font-size:180px;font-family:Exo;-inkscape-font-specification:'Exo Ultra-Light';text-align:center;text-anchor:middle;fill:#ffffff;fill-opacity:1"
         id="path4226" />
      <path
         d="m 873.72918,573.16031 0,-131.76 51.84,0 q 17.1,0 24.66,10.44 6.66,9.54 6.66,26.82 0,26.64 -12.96,34.02 -5.76,3.24 -13.68,3.6 l 28.44,56.88 -7.74,0 -28.8,-56.7 q -39.78,-1.08 -41.04,-1.98 l 0,58.68 -7.38,0 z m 7.38,-64.44 44.46,0 q 5.4,0 9,-0.9 3.6,-0.9 7.2,-3.78 7.56,-5.76 7.56,-24.48 0,-18.72 -6.48,-24.66 -6.48,-5.94 -17.28,-5.94 l -44.46,0 0,59.76 z"
         style="font-style:normal;font-variant:normal;font-weight:200;font-stretch:normal;font-size:180px;font-family:Exo;-inkscape-font-specification:'Exo Ultra-Light';text-align:center;text-anchor:middle;fill:#ffffff;fill-opacity:1"
         id="path4228" />
      <path
         d="m 977.14762,546.52031 q -2.34,-9.54 -3.06,-18.36 -0.54,-8.82 -0.54,-21.24 0,-12.6 0.72,-21.24 0.72,-8.82 3.06,-18 2.52,-9.18 6.66,-14.76 4.32,-5.76 11.7,-9.36 7.55998,-3.6 16.19998,-3.6 8.82,0 23.04,1.62 14.4,1.44 23.94,3.24 l 0,5.94 q -0.18,0 -3.42,-0.36 -3.06,-0.36 -8.1,-0.9 -4.86,-0.54 -10.44,-0.9 -14.76,-1.26 -23.22,-1.26 -8.28,0 -14.21998,2.7 -5.76,2.52 -9.36,7.2 -3.6,4.68 -5.76,12.24 -3.42,13.14 -3.42,37.44 0,33.12 7.02,46.44 7.2,13.14 26.63998,13.32 6.12,0 16.02,-2.16 10.08,-2.16 16.92,-4.32 l 6.84,-2.16 0,-47.34 -35.64,0 0,-4.68 q 10.44,-2.88 30.78,-2.88 5.76,0 12.24,0.54 l 0,69.48 -5.04,0 -1.98,-9.36 q -6.12,3.42 -17.82,6.84 -11.52,3.42 -22.32,3.42 -0.54,0 -1.08,0 -10.08,0 -17.63998,-3.42 -7.56,-3.6 -11.88,-9.18 -4.32,-5.58 -6.84,-14.94 z"
         style="font-style:normal;font-variant:normal;font-weight:200;font-stretch:normal;font-size:180px;font-family:Exo;-inkscape-font-specification:'Exo Ultra-Light';text-align:center;text-anchor:middle;fill:#ffffff;fill-opacity:1"
         id="path4230" />
    </g>
    <path
       style="fill:#ffffff;fill-opacity:1;fill-rule:evenodd;stroke:none;stroke-width:1px;stroke-linecap:butt;stroke-linejoin:miter;stroke-opacity:1"
       d="m -545.6644,1166.284 0,-342.62953 25.7143,42.8571 7.3119,-60.7591 c -6.7289,-7.532 -2.9356,-15.9099 6.566,-15.6574 l 4.0406,-38.3858 c -7.106,-3.3588 -7.2142,-16.2228 5.0507,-16.1624 l 7.5762,-37.37557 c -7.3611,-3.8503 -4.6947,-15.2447 5.0507,-11.6168 l 4.0407,-34.3451 c -6.3182,-3.0677 -9.6962,-13.8114 2.5253,-14.6473 l 7.5762,-33.8401 c -8.0915,-5.2189 -11.3525,-18.8587 4.5457,-20.203 l 7.071,-40.9112 c -6.4802,-4.0588 -8.1515,-18.0687 6.0609,-18.1827 l 4.5457,-34.8503 c -7.2066,-2.9302 -9.8365,-16.5917 2.5254,-18.6878 l 16.6675,-88.3884 13.6371,87.3782 c 8.351,-0.3722 9.7876,12.892 3.0304,15.1523 l 4.5457,35.8604 c 8.4357,0.852 9.6423,9.8214 3.0305,13.132 l 5.5558,51.5178 c 8.2409,1.6099 8.0114,11.6271 2.5254,14.1421 l 5.5559,34.8503 c 6.5734,0.4576 7.9815,10.2015 1.0101,14.1421 l 4.0406,38.3858 c 9.1979,1.6696 8.2052,10.9822 3.0305,13.132 l 5.5558,36.87047 c 7.7706,0.8441 8.4452,9.0483 3.0305,13.132 l 4.5457,36.8706 c 9.5084,0.3352 7.2408,14.4335 3.0304,16.1624 l 9.0914,52.528 16.1624,-28.2843 10.6066,74.5682 332.3403,1.5152 -344.4621,17.1726 -11.1117,-41.2332 -8.5863,17.6777 -65.1548,-397.49497 -81.8224,413.65737 -25.2538,-38.3858 z"
       id="path4397-0-2-8"
       inkscape:connector-curvature="0"
       sodipodi:nodetypes="ccccccccccccccccccccccccccccccccccccccccccc" />
    <g
       id="g4202"
       transform="matrix(1.0101831,0,0,1.0101831,-348.59111,695.76533)">
      <path
         style="fill:#ffffff;fill-opacity:1"
         id="path4857"
         d="m 10.696724,343.16639 -141.068974,0 c -1.80088,0 -3.30161,-1.50073 -3.30161,-3.30161 l 0,-36.61791 c 0,-1.80088 1.50073,-3.30162 3.30161,-3.30162 l 141.068974,0 c 1.80088,0 3.301614,1.50074 3.301614,3.30162 l 0,36.31776 c 0,1.80088 -1.200587,3.60176 -3.301614,3.60176 z"
         inkscape:connector-curvature="0" />
      <path
         style="fill:#ffffff;fill-opacity:1"
         id="path4859"
         d="m -27.12177,399.89413 -102.95033,0 c -1.80088,0 -3.60176,-1.50073 -3.60176,-3.60176 l 0,-36.01761 c 0,-1.80088 1.50073,-3.60176 3.60176,-3.60176 l 102.95033,0 c 1.800881,0 3.601761,1.50073 3.601761,3.60176 l 0,36.01761 c 0,2.10103 -1.500734,3.60176 -3.601761,3.60176 z"
         inkscape:connector-curvature="0" />
      <path
         id="path4866"
         d="m 61.421528,455.72143 -141.068969,0 c -1.80088,0 -3.601761,-1.50073 -3.601761,-3.60176 l 0,-36.01761 c 0,-1.80088 1.500734,-3.60176 3.601761,-3.60176 l 140.768823,0 c 1.80088,0 3.601761,1.50073 3.601761,3.60176 l 0,36.01761 c 0,2.10103 -1.500734,3.60176 -3.301615,3.60176 z"
         style="fill:#d0bd2b;fill-opacity:1"
         inkscape:connector-curvature="0" />
    </g>
    <g
       transform="matrix(4.0788217,0,0,3.7502362,-610.57845,930.71607)"
       id="g4884"
       style="fill:#ffffff;fill-opacity:1">
      <path
         inkscape:connector-curvature="0"
         d="m 139.2,58.2 c -2.5,0.9 -5.7,1.9 -9.7,2.8 -4.1,0.9 -8.1,1.4 -12.1,1.4 -9.3,0 -16.6,-2.5 -21.9,-7.6 -5.3,-5.1 -7.9,-12.1 -7.9,-21 0,-8.5 2.7,-15.4 8,-20.6 5.3,-5.2 12.8,-7.8 22.3,-7.8 3.6,0 7,0.3 10.3,1 3.3,0.6 6.9,1.9 10.9,3.9 l 0,12.8 -1.6,0 c -0.7,-0.5 -1.7,-1.2 -3,-2.2 -1.3,-1 -2.6,-1.8 -3.8,-2.4 -1.4,-0.8 -3.1,-1.5 -5,-2 -1.9,-0.6 -3.9,-0.9 -6.1,-0.9 -2.5,0 -4.8,0.4 -6.8,1.1 -2,0.7 -3.9,1.9 -5.5,3.4 -1.6,1.5 -2.8,3.4 -3.7,5.6 -0.9,2.3 -1.3,4.9 -1.3,7.8 0,6.1 1.6,10.7 4.8,13.9 3.2,3.2 8,4.8 14.3,4.8 0.6,0 1.1,0 1.8,0 0.6,0 1.2,0 1.8,-0.1 l 0,-10.7 -10.9,0 0,-10.3 25.3,0 -0.2,27.1 0,0 z"
         id="path4886"
         style="fill:#ffffff;fill-opacity:1" />
      <path
         inkscape:connector-curvature="0"
         d="m 172.7,57 c -0.7,0.6 -1.6,1.2 -2.7,1.9 -1,0.8 -2.1,1.4 -3,1.8 -1.3,0.6 -2.7,1 -4.1,1.3 -1.4,0.3 -2.9,0.4 -4.6,0.4 -3.9,0 -7.2,-1.2 -9.9,-3.7 -2.7,-2.4 -4,-5.5 -4,-9.3 0,-3 0.7,-5.5 2,-7.4 1.3,-1.9 3.3,-3.4 5.7,-4.5 2.4,-1.1 5.5,-1.9 9.1,-2.4 3.6,-0.5 7.4,-0.8 11.3,-1 l 0,-0.2 c 0,-2.3 -0.9,-3.9 -2.8,-4.7 -1.9,-0.9 -4.6,-1.3 -8.2,-1.3 -2.2,0 -4.5,0.4 -7,1.2 -2.5,0.8 -4.3,1.4 -5.3,1.8 l -1.2,0 0,-10 c 1.4,-0.4 3.7,-0.8 6.9,-1.3 3.1,-0.5 6.3,-0.8 9.5,-0.8 7.5,0 13,1.2 16.3,3.5 3.3,2.3 5,5.9 5,10.9 l 0,28.1 -13.1,0 0.1,-4.3 0,0 z m 0,-6.5 0,-8.5 c -1.8,0.1 -3.7,0.3 -5.8,0.6 -2.1,0.3 -3.7,0.6 -4.7,0.9 -1.3,0.4 -2.3,1 -3,1.8 -0.7,0.8 -1,1.9 -1,3.1 0,0.9 0.1,1.6 0.2,2.1 0.1,0.6 0.5,1 1.1,1.6 0.6,0.5 1.2,0.9 2,1.1 0.8,0.2 2,0.3 3.7,0.3 1.3,0 2.7,-0.3 4.1,-0.8 1.2,-0.6 2.4,-1.3 3.4,-2.2 z"
         id="path4888"
         style="fill:#ffffff;fill-opacity:1" />
      <path
         inkscape:connector-curvature="0"
         d="m 208,61.3 -13.3,0 0,-57.3 13.3,0 0,57.3 z"
         id="path4890"
         style="fill:#ffffff;fill-opacity:1" />
      <path
         inkscape:connector-curvature="0"
         d="m 242.1,57 c -0.7,0.6 -1.6,1.2 -2.7,1.9 -1,0.8 -2.1,1.4 -3,1.8 -1.3,0.6 -2.7,1 -4.1,1.3 -1.4,0.3 -2.9,0.4 -4.6,0.4 -3.9,0 -7.2,-1.2 -9.9,-3.7 -2.7,-2.4 -4,-5.5 -4,-9.3 0,-3 0.7,-5.5 2,-7.4 1.3,-1.9 3.3,-3.4 5.7,-4.5 2.5,-1.1 5.5,-1.9 9.1,-2.4 3.6,-0.5 7.4,-0.8 11.3,-1 l 0,-0.2 c 0,-2.3 -0.9,-3.9 -2.8,-4.7 -1.9,-0.9 -4.6,-1.3 -8.2,-1.3 -2.2,0 -4.5,0.4 -7,1.2 -2.5,0.8 -4.3,1.4 -5.3,1.8 l -1.2,0 0,-10 c 1.4,-0.4 3.7,-0.8 6.9,-1.3 3.1,-0.5 6.3,-0.8 9.5,-0.8 7.5,0 13,1.2 16.3,3.5 3.4,2.3 5,5.9 5,10.9 l 0,28.1 -13.1,0 0.1,-4.3 0,0 z m 0,-6.5 0,-8.5 c -1.8,0.1 -3.7,0.3 -5.8,0.6 -2.1,0.3 -3.7,0.6 -4.7,0.9 -1.3,0.4 -2.3,1 -3,1.8 -0.7,0.8 -1,1.9 -1,3.1 0,0.9 0.1,1.6 0.2,2.1 0.1,0.6 0.5,1 1.1,1.6 0.6,0.5 1.2,0.9 2,1.1 0.8,0.2 2,0.3 3.7,0.3 1.3,0 2.7,-0.3 4.1,-0.8 1.2,-0.6 2.4,-1.3 3.4,-2.2 z"
         id="path4892"
         style="fill:#ffffff;fill-opacity:1" />
      <path
         inkscape:connector-curvature="0"
         d="m 307.3,61.3 -15.5,0 L 283,49 273.9,61.4 258.7,61.4 275,40.7 259,20 l 15.5,0 8.7,12.2 8.7,-12.2 15.2,0 -16.1,20.4 16.3,20.9 z"
         id="path4894"
         style="fill:#ffffff;fill-opacity:1" />
      <path
         inkscape:connector-curvature="0"
         d="m 329.8,46.7 9.4,-26.7 13.6,0 -23,56.5 -14.4,0 6.6,-15.5 -16,-41 13.9,0 9.9,26.7 z"
         id="path4896"
         style="fill:#ffffff;fill-opacity:1" />
    </g>
  </g>
</svg>
