<?xml version="1.0" encoding="UTF-8" standalone="no"?>
<svg
   xmlns:dc="http://purl.org/dc/elements/1.1/"
   xmlns:cc="http://creativecommons.org/ns#"
   xmlns:rdf="http://www.w3.org/1999/02/22-rdf-syntax-ns#"
   xmlns:svg="http://www.w3.org/2000/svg"
   xmlns="http://www.w3.org/2000/svg"
   xmlns:sodipodi="http://sodipodi.sourceforge.net/DTD/sodipodi-0.dtd"
   xmlns:inkscape="http://www.inkscape.org/namespaces/inkscape"
   xml:space="preserve"
   version="1.1"
   style="shape-rendering:geometricPrecision;text-rendering:geometricPrecision;image-rendering:optimizeQuality;"
   viewBox="0 0 804 971.25"
   x="0px"
   y="0px"
   fill-rule="evenodd"
   clip-rule="evenodd"
   id="svg18"
   sodipodi:docname="noun_Recycle_2664495.svg"
   inkscape:version="0.92.2 5c3e80d, 2017-08-06"
   inkscape:export-filename="/Users/bebatut/Documents/com/usegalaxy-eu/branding/usegalaxy-eu-flyer/noun_Recycle_2664495.png"
   inkscape:export-xdpi="300"
   inkscape:export-ydpi="300"><metadata
     id="metadata22"><rdf:RDF><cc:Work
         rdf:about=""><dc:format>image/svg+xml</dc:format><dc:type
           rdf:resource="http://purl.org/dc/dcmitype/StillImage" /></cc:Work></rdf:RDF></metadata><sodipodi:namedview
     pagecolor="#ffffff"
     bordercolor="#666666"
     borderopacity="1"
     objecttolerance="10"
     gridtolerance="10"
     guidetolerance="10"
     inkscape:pageopacity="0"
     inkscape:pageshadow="2"
     inkscape:window-width="1084"
     inkscape:window-height="1158"
     id="namedview20"
     showgrid="false"
     inkscape:zoom="0.24298584"
     inkscape:cx="402"
     inkscape:cy="485.625"
     inkscape:window-x="0"
     inkscape:window-y="0"
     inkscape:window-maximized="0"
     inkscape:current-layer="svg18" /><defs
     id="defs4"><style
       type="text/css"
       id="style2">
   
    .fil0 {fill:black;fill-rule:nonzero}
   
  </style></defs><g
     id="g12"
     style="fill:#003399;fill-opacity:1"><path
       class="fil0"
       d="M176 259c91,-147 207,-195 370,-67l-27 46 192 -12 -82 -174 -27 46c-129,-76 -278,-219 -508,98l98 -46 -15 109z"
       id="path6"
       style="fill:#003399;fill-opacity:1" /><path
       class="fil0"
       d="M406 674c-172,-5 -273,-82 -244,-287l54 1 -106 -160 -110 158 54 1c-1,150 -51,350 339,391l-89 -62 102 -41z"
       id="path8"
       style="fill:#003399;fill-opacity:1" /><path
       class="fil0"
       d="M649 268c82,152 65,277 -127,354l-27 -47 -85 172 191 16 -27 -47c130,-73 329,-131 169,-489l-9 108 -87 -68z"
       id="path10"
       style="fill:#003399;fill-opacity:1" /></g></svg>