<?xml version="1.0" encoding="UTF-8" standalone="no"?>
<svg
   xmlns:dc="http://purl.org/dc/elements/1.1/"
   xmlns:cc="http://creativecommons.org/ns#"
   xmlns:rdf="http://www.w3.org/1999/02/22-rdf-syntax-ns#"
   xmlns:svg="http://www.w3.org/2000/svg"
   xmlns="http://www.w3.org/2000/svg"
   xmlns:sodipodi="http://sodipodi.sourceforge.net/DTD/sodipodi-0.dtd"
   xmlns:inkscape="http://www.inkscape.org/namespaces/inkscape"
   version="1.1"
   x="0px"
   y="0px"
   viewBox="0 0 20 25"
   enable-background="new 0 0 20 20"
   xml:space="preserve"
   id="svg8"
   sodipodi:docname="noun_Workflow_797289.svg"
   inkscape:version="0.92.2 5c3e80d, 2017-08-06"
   inkscape:export-filename="/Users/bebatut/Documents/com/usegalaxy-eu/branding/usegalaxy-eu-flyer/noun_Workflow_797289.png"
   inkscape:export-xdpi="300"
   inkscape:export-ydpi="300"><metadata
     id="metadata14"><rdf:RDF><cc:Work
         rdf:about=""><dc:format>image/svg+xml</dc:format><dc:type
           rdf:resource="http://purl.org/dc/dcmitype/StillImage" /></cc:Work></rdf:RDF></metadata><defs
     id="defs12" /><sodipodi:namedview
     pagecolor="#ffffff"
     bordercolor="#666666"
     borderopacity="1"
     objecttolerance="10"
     gridtolerance="10"
     guidetolerance="10"
     inkscape:pageopacity="0"
     inkscape:pageshadow="2"
     inkscape:window-width="1150"
     inkscape:window-height="1034"
     id="namedview10"
     showgrid="false"
     inkscape:zoom="9.44"
     inkscape:cx="15.924432"
     inkscape:cy="12.5"
     inkscape:window-x="0"
     inkscape:window-y="0"
     inkscape:window-maximized="0"
     inkscape:current-layer="svg8" /><path
     d="m 37.007416,6.1949152 h 9.868643 c 1.480297,0 2.467161,-0.9868643 2.467161,-2.467161 v -9.868644 c 0,-1.4802966 -0.986864,-2.4671612 -2.467161,-2.4671612 h -9.868643 c -1.480298,0 -2.467162,0.9868646 -2.467162,2.4671612 v 2.467161 H 27.138771 V -16.009533 c 0,-1.480298 -0.986864,-2.467162 -2.467161,-2.467162 H 14.309534 C 13.32267,-21.437288 10.608792,-23.411017 7.401483,-23.411017 3.2073093,-23.411017 0,-20.203708 0,-16.009533 c 0,4.194173 3.2073093,7.401482 7.401483,7.401482 3.207309,0 5.921187,-1.973729 6.908051,-4.934322 H 22.20445 V 18.53072 c 0,1.480297 0.986864,2.467161 2.46716,2.467161 h 9.868644 v 2.467161 c 0,1.480297 0.986864,2.467161 2.467162,2.467161 h 9.868643 c 1.480297,0 2.467161,-0.986864 2.467161,-2.467161 v -9.868644 c 0,-1.480296 -0.986864,-2.467161 -2.467161,-2.467161 h -9.868643 c -1.480298,0 -2.467162,0.986865 -2.467162,2.467161 V 16.06356 H 27.138771 V 1.2605932 h 7.401483 v 2.467161 c 0,1.4802967 0.986864,2.467161 2.467162,2.467161 z m 2.467161,-9.868644 h 4.934321 v 4.934322 h -4.934321 z m 0,19.7372888 h 4.934321 v 4.934321 h -4.934321 z"
     id="path2"
     style="fill:#003399;fill-opacity:1;stroke-width:2.46716094"
     inkscape:connector-curvature="0" /></svg>