<?xml version="1.0" encoding="UTF-8" standalone="no"?>
<svg
   xmlns:dc="http://purl.org/dc/elements/1.1/"
   xmlns:cc="http://creativecommons.org/ns#"
   xmlns:rdf="http://www.w3.org/1999/02/22-rdf-syntax-ns#"
   xmlns:svg="http://www.w3.org/2000/svg"
   xmlns="http://www.w3.org/2000/svg"
   xmlns:sodipodi="http://sodipodi.sourceforge.net/DTD/sodipodi-0.dtd"
   xmlns:inkscape="http://www.inkscape.org/namespaces/inkscape"
   version="1.1"
   x="0px"
   y="0px"
   viewBox="0 0 100 125"
   style="enable-background:new 0 0 100 100;"
   xml:space="preserve"
   id="svg18"
   sodipodi:docname="noun_analysis_71513.svg"
   inkscape:version="0.92.2 5c3e80d, 2017-08-06"
   inkscape:export-filename="/Users/bebatut/Documents/com/usegalaxy-eu/branding/freiburg-flyer/noun_analysis_71513.png"
   inkscape:export-xdpi="300"
   inkscape:export-ydpi="300"><metadata
     id="metadata24"><rdf:RDF><cc:Work
         rdf:about=""><dc:format>image/svg+xml</dc:format><dc:type
           rdf:resource="http://purl.org/dc/dcmitype/StillImage" /><dc:title></dc:title></cc:Work></rdf:RDF></metadata><defs
     id="defs22" /><sodipodi:namedview
     pagecolor="#ffffff"
     bordercolor="#666666"
     borderopacity="1"
     objecttolerance="10"
     gridtolerance="10"
     guidetolerance="10"
     inkscape:pageopacity="0"
     inkscape:pageshadow="2"
     inkscape:window-width="977"
     inkscape:window-height="781"
     id="namedview20"
     showgrid="false"
     inkscape:zoom="1.888"
     inkscape:cx="50"
     inkscape:cy="62.5"
     inkscape:window-x="0"
     inkscape:window-y="0"
     inkscape:window-maximized="0"
     inkscape:current-layer="svg18" /><style
     type="text/css"
     id="style2">
	.st0{fill:#010202;}
</style><g
     id="g12"
     style="fill:#003399;fill-opacity:1"><path
       class="st0"
       d="M27.2,56.1c2.3,2.4,5.2,4.2,8.5,5.3V40.3c0-0.5-0.4-0.9-0.9-0.9h-6.6c-0.5,0-0.9,0.4-0.9,0.9V56.1z"
       id="path4"
       style="fill:#003399;fill-opacity:1" /><path
       class="st0"
       d="M38.5,62.2c1.4,0.3,2.8,0.4,4.2,0.4s2.9-0.1,4.2-0.4V47.5c0-0.5-0.4-0.9-0.9-0.9h-6.6c-0.5,0-0.9,0.4-0.9,0.9   V62.2z"
       id="path6"
       style="fill:#003399;fill-opacity:1" /><path
       class="st0"
       d="M49.8,61.4c3.3-1.1,6.2-3,8.5-5.3V32.9c0-0.5-0.4-0.9-0.9-0.9h-6.6c-0.5,0-0.9,0.4-0.9,0.9V61.4z"
       id="path8"
       style="fill:#003399;fill-opacity:1" /><path
       class="st0"
       d="M86.5,74.7l-17.7-14c3.8-5.1,6.1-11.3,6.1-18.1c0-17.1-14.4-30.9-32.1-30.9S10.6,25.6,10.6,42.7   S25,73.6,42.7,73.6c7,0,13.4-2.1,18.7-5.8L76,85.4c0.3,0.4,0.7,0.8,1.1,1.1c3.3,2.6,8,2,10.6-1.3S89.7,77.3,86.5,74.7z M58.3,59.8   c-2.2,1.8-4.8,3.3-7.7,4.2c-2.5,0.8-5.1,1.3-7.9,1.3c-2.5,0-4.9-0.4-7.1-1c-3.2-0.9-6-2.5-8.5-4.5c-5-4.2-8.2-10.3-8.2-17.1   c0-12.5,10.7-22.6,23.8-22.6s23.8,10.1,23.8,22.6C66.5,49.5,63.3,55.7,58.3,59.8z"
       id="path10"
       style="fill:#003399;fill-opacity:1" /></g></svg>