<?xml version="1.0" encoding="UTF-8" standalone="no"?>
<svg
   xmlns:dc="http://purl.org/dc/elements/1.1/"
   xmlns:cc="http://creativecommons.org/ns#"
   xmlns:rdf="http://www.w3.org/1999/02/22-rdf-syntax-ns#"
   xmlns:svg="http://www.w3.org/2000/svg"
   xmlns="http://www.w3.org/2000/svg"
   xmlns:sodipodi="http://sodipodi.sourceforge.net/DTD/sodipodi-0.dtd"
   xmlns:inkscape="http://www.inkscape.org/namespaces/inkscape"
   version="1.1"
   x="0px"
   y="0px"
   viewBox="0 0 32 40"
   enable-background="new 0 0 32 32"
   xml:space="preserve"
   id="svg18"
   sodipodi:docname="noun_Hard Drive_233097.svg"
   inkscape:version="0.92.2 5c3e80d, 2017-08-06"
   inkscape:export-filename="/Users/bebatut/Documents/com/usegalaxy-eu/branding/freiburg-flyer/noun_Hard Drive_233097.png"
   inkscape:export-xdpi="300"
   inkscape:export-ydpi="300"><metadata
     id="metadata24"><rdf:RDF><cc:Work
         rdf:about=""><dc:format>image/svg+xml</dc:format><dc:type
           rdf:resource="http://purl.org/dc/dcmitype/StillImage" /></cc:Work></rdf:RDF></metadata><defs
     id="defs22" /><sodipodi:namedview
     pagecolor="#ffffff"
     bordercolor="#666666"
     borderopacity="1"
     objecttolerance="10"
     gridtolerance="10"
     guidetolerance="10"
     inkscape:pageopacity="0"
     inkscape:pageshadow="2"
     inkscape:window-width="1081"
     inkscape:window-height="1156"
     id="namedview20"
     showgrid="false"
     inkscape:zoom="5.9"
     inkscape:cx="16"
     inkscape:cy="20"
     inkscape:window-x="0"
     inkscape:window-y="0"
     inkscape:window-maximized="0"
     inkscape:current-layer="svg18" /><g
     display="none"
     id="g4"><path
       display="inline"
       d="M18,0h-4c-3.314,0-6,2.687-6,6v6h2V6c0-2.206,1.795-4,4-4h4c2.205,0,4,1.794,4,4v20c0,2.206-1.795,4-4,4   c-2.205,0-4-1.794-4-4V8c0-1.102,0.896-2,2-2c1.104,0,2,0.898,2,2v16h2V8c0-2.209-1.791-4-4-4c-2.209,0-4,1.791-4,4v4v12v2   c0,3.313,2.686,6,6,6c3.314,0,6-2.687,6-6V6C24,2.687,21.314,0,18,0z"
       id="path2" /></g><g
     id="g12"
     style="fill:#003399;fill-opacity:1"><g
       id="g10"
       style="fill:#003399;fill-opacity:1"><path
         d="M28.4,2l-0.008-0.039C28.176,0.883,27.1,0,26,0H6C4.9,0,3.822,0.883,3.607,1.961L3.6,2L0,20v2c0-1.105,0.894-2,2-2h28    c1.104,0,2,0.895,2,2v-2L28.4,2z"
         id="path6"
         style="fill:#003399;fill-opacity:1" /><path
         d="M30,22H2c-1.105,0-2,0.895-2,2v6c0,1.104,0.894,2,2,2h28c1.104,0,2-0.896,2-2v-6C32,22.895,31.104,22,30,22z M27.998,28    c-1.104,0-2-0.895-2-2c0-1.104,0.896-2,2-2c1.106,0,2,0.896,2,2C29.998,27.105,29.104,28,27.998,28z"
         id="path8"
         style="fill:#003399;fill-opacity:1" /></g></g></svg>