<?xml version="1.0" encoding="UTF-8" standalone="no"?>
<svg
   xmlns:dc="http://purl.org/dc/elements/1.1/"
   xmlns:cc="http://creativecommons.org/ns#"
   xmlns:rdf="http://www.w3.org/1999/02/22-rdf-syntax-ns#"
   xmlns:svg="http://www.w3.org/2000/svg"
   xmlns="http://www.w3.org/2000/svg"
   xmlns:sodipodi="http://sodipodi.sourceforge.net/DTD/sodipodi-0.dtd"
   xmlns:inkscape="http://www.inkscape.org/namespaces/inkscape"
   data-name="Layer 1"
   viewBox="0 0 100 125"
   x="0px"
   y="0px"
   version="1.1"
   id="svg10"
   sodipodi:docname="noun_new user_665174.svg"
   inkscape:version="0.92.2 5c3e80d, 2017-08-06"
   inkscape:export-filename="/Users/bebatut/Documents/com/usegalaxy-eu/branding/freiburg-flyer/noun_new user_665174.png"
   inkscape:export-xdpi="300"
   inkscape:export-ydpi="300">
  <metadata
     id="metadata16">
    <rdf:RDF>
      <cc:Work
         rdf:about="">
        <dc:format>image/svg+xml</dc:format>
        <dc:type
           rdf:resource="http://purl.org/dc/dcmitype/StillImage" />
      </cc:Work>
    </rdf:RDF>
  </metadata>
  <defs
     id="defs14" />
  <sodipodi:namedview
     pagecolor="#ffffff"
     bordercolor="#666666"
     borderopacity="1"
     objecttolerance="10"
     gridtolerance="10"
     guidetolerance="10"
     inkscape:pageopacity="0"
     inkscape:pageshadow="2"
     inkscape:window-width="1088"
     inkscape:window-height="842"
     id="namedview12"
     showgrid="false"
     inkscape:zoom="1.888"
     inkscape:cx="50"
     inkscape:cy="62.5"
     inkscape:window-x="0"
     inkscape:window-y="0"
     inkscape:window-maximized="0"
     inkscape:current-layer="svg10" />
  <title
     id="title2">Artboard 24</title>
  <path
     d="M93.32,55.5a18.47,18.47,0,1,0-26.12,0A18.49,18.49,0,0,0,93.32,55.5Zm-20-15.69h4.34V35.45a2.63,2.63,0,0,1,5.27,0V39.8h4.35a2.63,2.63,0,0,1,2.63,2.63h0a2.63,2.63,0,0,1-2.63,2.63H82.89v4.35a2.63,2.63,0,0,1-5.27,0V45.07H73.28a2.63,2.63,0,0,1,0-5.27Zm-72,49.57v-11A33.37,33.37,0,0,1,21.87,47.51a22.75,22.75,0,1,1,25.57,0A33.37,33.37,0,0,1,68,78.34v11a4.69,4.69,0,0,1-4.69,4.69H6A4.69,4.69,0,0,1,1.28,89.37Z"
     id="path4"
     style="fill:#003399;fill-opacity:1" />
</svg>
