<?xml version="1.0" encoding="UTF-8" standalone="no"?>
<svg
   xmlns:dc="http://purl.org/dc/elements/1.1/"
   xmlns:cc="http://creativecommons.org/ns#"
   xmlns:rdf="http://www.w3.org/1999/02/22-rdf-syntax-ns#"
   xmlns:svg="http://www.w3.org/2000/svg"
   xmlns="http://www.w3.org/2000/svg"
   xmlns:sodipodi="http://sodipodi.sourceforge.net/DTD/sodipodi-0.dtd"
   xmlns:inkscape="http://www.inkscape.org/namespaces/inkscape"
   version="1.1"
   x="0px"
   y="0px"
   viewBox="0 0 100 125"
   enable-background="new 0 0 100 100"
   xml:space="preserve"
   id="svg22"
   sodipodi:docname="noun_europe_141682.svg"
   inkscape:export-filename="/Users/bebatut/Documents/com/usegalaxy-eu/branding/usegalaxy-eu-flyer/noun_europe_141682.png"
   inkscape:export-xdpi="300"
   inkscape:export-ydpi="300"
   inkscape:version="0.92.2 5c3e80d, 2017-08-06"><metadata
     id="metadata28"><rdf:RDF><cc:Work
         rdf:about=""><dc:format>image/svg+xml</dc:format><dc:type
           rdf:resource="http://purl.org/dc/dcmitype/StillImage" /></cc:Work></rdf:RDF></metadata><defs
     id="defs26" /><sodipodi:namedview
     pagecolor="#ffffff"
     bordercolor="#666666"
     borderopacity="1"
     objecttolerance="10"
     gridtolerance="10"
     guidetolerance="10"
     inkscape:pageopacity="0"
     inkscape:pageshadow="2"
     inkscape:window-width="1161"
     inkscape:window-height="1137"
     id="namedview24"
     showgrid="false"
     inkscape:zoom="1.888"
     inkscape:cx="-46.927966"
     inkscape:cy="62.5"
     inkscape:window-x="615"
     inkscape:window-y="0"
     inkscape:window-maximized="0"
     inkscape:current-layer="svg22" /><g
     id="g16"
     style="fill:#003399;fill-opacity:1"><path
       d="M86.9,68.5L82,66.9c0,0-0.1,0-0.1-0.1l-2.2-2c-0.1-0.1-0.1-0.1-0.1-0.2L79.4,63c-0.1-0.6-0.6-1-1.2-1h-2.1   c-0.2,0-0.3-0.1-0.3-0.3l-0.3-1.2c0-0.2,0.1-0.4,0.2-0.4l0.4-0.1c0.4-0.1,0.7-0.5,0.8-0.9s0-0.9-0.4-1.2l-1.7-1.5   c-0.1-0.1-0.1-0.1-0.1-0.2l-0.1-1.7c0-0.5-0.4-1-1-1.1l-3.1-0.6c-0.2,0-0.3-0.2-0.3-0.3l-0.2-4.7c0-0.1,0-0.2-0.1-0.4l-0.8-2.2   c-0.1-0.2,0-0.4,0.2-0.4l0.8-0.3c0.2-0.1,0.3-0.3,0.2-0.5c0-0.2-0.2-0.3-0.4-0.3h-4.2c-0.5,0-0.9,0.3-1.1,0.8l-0.4,1.1   c-0.1,0.3-0.1,0.7,0.1,1l0.9,1.8c0.1,0.1,0.1,0.2,0,0.3l-0.8,1.4c-0.1,0.2-0.3,0.3-0.5,0.1l-0.8-0.7c-0.2-0.2-0.5-0.3-0.8-0.3   c-0.6,0-1,0.4-1.2,0.9l-1,4.1l-1,2.9c0,0.1-0.2,0.2-0.3,0.2h-2.1c-0.2,0-0.3-0.1-0.3-0.2l-0.2-0.5c-0.1-0.2-0.3-0.3-0.5-0.3l-3.5,1   c-0.4,0.1-0.6,0.3-0.8,0.7l-0.9,2c-0.1,0.2-0.3,0.2-0.3,0.2c-0.1,0-0.2,0-0.3-0.2L49,58c-0.2-0.4-0.6-0.7-1.1-0.7c0,0-0.1,0-0.1,0   L45,57.6c-0.1,0-0.2-0.1-0.3-0.2l-1.1-1.7c-0.1-0.1-0.1-0.2,0-0.3l1.1-2.7c0.1-0.2,0.1-0.3,0.1-0.5l-0.1-2.2c0-0.8-0.9-1.4-1.7-1   L42,49.3c-0.3,0.1-0.6,0.5-0.7,0.8l-0.6,2.6c-0.1,0.2,0,0.4,0,0.7l1.2,3.5l0.7,1.6c0,0.1,0,0.2,0,0.3c0,0.1-0.1,0.2-0.2,0.2   l-1.9,0.8c0,0-0.1,0-0.2,0l-0.8-0.2c-0.5-0.1-1,0.1-1.3,0.5l-3,4.8c0,0.1-0.1,0.1-0.2,0.1l-2.2,0.8c-0.2,0.1-0.4,0.2-0.5,0.4   l-2.5,3.2c-0.1,0.1-0.2,0.1-0.3,0.1l-0.7-0.1c-0.6-0.1-1.3,0.3-1.4,1c0,0.1-0.2,0.3-0.3,0.3l-1,0.1c-0.5,0.1-1,0.4-1.1,1   c-0.1,0.5,0.1,1,0.6,1.3l0.9,0.5c0.1,0,0.1,0.1,0.1,0.1l2.3,4.6c0,0.1,0,0.2,0,0.3l-1.3,3.2c-0.1,0.1-0.2,0.2-0.3,0.2H18   c-0.7,0-1.2,0.5-1.2,1.2v10c0,0.7,0.5,1.2,1.2,1.2H20c0.1,0,0.2,0.1,0.3,0.2l0.2,0.4c0.2,0.4,0.6,0.6,1,0.6c0.2,0,0.4,0,0.6-0.1   l1-0.5c0.1,0,0.1,0,0.2,0l2.9-0.1c0.3,0,0.7-0.2,0.9-0.4l2.2-2.7c0.1-0.1,0.2-0.3,0.2-0.4l1.1-3.8c0-0.1,0.1-0.2,0.2-0.2l2.8-1.5   c0.4-0.2,0.6-0.5,0.6-0.9l0.2-1.7c0-0.2,0.1-0.3,0.3-0.3l3.7-0.7c0.3-0.1,0.6-0.2,0.8-0.5l0.7-0.9c0.1-0.1,0.2-0.1,0.4-0.1l0.5,0.1   c0.3,0.1,0.7,0,1-0.2l0.7-0.5c0.1-0.1,0.2-0.1,0.3,0l1.8,0.7c0.1,0,0.2,0.1,0.2,0.3l0.4,2.2c0,0.3,0.2,0.5,0.4,0.7l2.2,1.9   c0,0,0.1,0.1,0.1,0.1l4.1,2.6c0.1,0,0.1,0.1,0.2,0.2l0.4,1.7V92c0,0.2,0.1,0.4,0.3,0.4c0.2,0.1,0.4,0,0.5-0.2l1.1-1.7   c0.2-0.3,0.2-0.7,0.1-1l-0.4-1.3l0.1,0l1.1,0.6c0.1,0,0.1,0.1,0.2,0.1c0,0,0,0,0,0c0.2,0,0.4-0.2,0.4-0.4c0-0.1-0.1-0.2-0.1-0.3   l-1.1-1.8c-0.1-0.2-0.3-0.4-0.5-0.5l-2.1-1.1l-1.7-1.3c0,0-0.1-0.1-0.1-0.1l-2.6-4.5c-0.1-0.1-0.1-0.3,0-0.4l1.2-1.7   c0.1-0.2,0.4-0.2,0.6,0l2.5,3.5l0.7,1.1c0.2,0.3,0.5,0.5,0.8,0.5l1.7,0.2c0.1,0,0.1,0,0.2,0.1l2.3,1.9c0.1,0.1,0.1,0.2,0.1,0.3v3.1   c0,0.2,0.1,0.5,0.2,0.7l2,3.1c0.1,0.2,0.3,0.4,0.6,0.5l0.8,0.3c-0.1,0.1-0.2,0.2-0.3,0.4c-0.2,0.4-0.1,0.8,0.1,1.1l0.2,0.4   c0.2,0.4,0.6,0.6,1.1,0.6c0,0,0,0,0,0l0.3,0c0.4,0,0.7-0.2,0.9-0.5c0.2-0.3,0.3-0.7,0.1-1.1L63,90.4c0,0,0-0.1,0-0.1l0.1-2.6   c0-0.1,0.1-0.3,0.2-0.3l2.6-1.1c0.1,0,0.2,0,0.3,0l0.3,0.2c0.6,0.3,1.4,0,1.7-0.6l0.3-0.8c0-0.1,0.2-0.2,0.3-0.2l0.9-0.1   c0.4,0,0.7-0.3,0.9-0.6c0.2-0.3,0.2-0.7,0.1-1.1l0-0.1c0-0.1,0-0.2,0-0.3l3-6.5c0-0.1,0.1-0.2,0.2-0.2l2.9-0.6c0,0,0.1,0,0.1,0   l1.2,0.5c0.1,0,0.2,0.1,0.2,0.2c0,0.1,0,0.2-0.1,0.3c-0.3,0.4-0.3,0.8-0.1,1.2l0.4,0.8c0.3,0.6,1.1,0.9,1.7,0.5l1.2-0.7   c0.3-0.2,0.5-0.5,0.6-0.8c0.1-0.3,0-0.7-0.3-1l-0.2-0.3c-0.1-0.1-0.2-0.2-0.4-0.3l6.1-4.2c0.3-0.2,0.5-0.6,0.5-1v-1.2   C87.7,69.1,87.4,68.6,86.9,68.5z"
       id="path2"
       style="fill:#003399;fill-opacity:1" /><path
       d="M51.8,91.2l-2.6,1c-0.1,0.1-0.2,0.2-0.3,0.3c0,0.1,0,0.3,0.1,0.4l1,1.1c0.1,0.1,0.2,0.1,0.3,0.1h1.5c0.2,0,0.4-0.2,0.4-0.4   l0.2-2.1c0-0.1-0.1-0.3-0.2-0.4C52.1,91.2,51.9,91.2,51.8,91.2z"
       id="path4"
       style="fill:#003399;fill-opacity:1" /><path
       d="M43.4,86.3l0.3-0.2c0.1-0.1,0.1-0.2,0.1-0.3v-1.3c0-0.2-0.1-0.3-0.3-0.4c-0.2-0.1-0.4,0-0.5,0.1L42.4,85   c-0.1,0.1-0.1,0.3-0.1,0.5l0.2,0.5l-1.1,0.9c-0.1,0.1-0.2,0.3-0.1,0.5l0.6,1.9c0,0.1,0.1,0.2,0.3,0.3c0,0,0.1,0,0.1,0   c0.1,0,0.2,0,0.3-0.1l1.4-1.1c0.2-0.1,0.2-0.3,0.1-0.5L43.4,86.3z"
       id="path6"
       style="fill:#003399;fill-opacity:1" /><path
       d="M22.9,53.6l-0.1,2.1c0,0.2,0.1,0.4,0.2,0.5c0.1,0.1,0.3,0.2,0.5,0.2c0,0,0.2,0,0.2,0l1.2-0.4l0.4,4L23,62.7   c-0.2,0.2-0.2,0.5-0.1,0.7c0.1,0.2,0.3,0.4,0.5,0.5l2,0.3l-1,0.9L22,66.2c-0.2,0.1-0.3,0.2-0.2,0.4s0.1,0.3,0.3,0.4l1.8,0.5   c0,0,0.2,0,0.2,0c0.2,0,0.4-0.1,0.5-0.2l1.1-1.2l3.9-0.3c0.2,0,0.4-0.1,0.5-0.3l1.7-2.6c0.1-0.2,0.1-0.4,0.1-0.5l-0.2-1.1   c-0.1-0.4-0.6-0.7-1-0.5l-0.6,0.3l-0.3-0.7l-0.3-3.2c0-0.1-0.1-0.2-0.1-0.3L27,53.6c-0.1-0.1-0.1-0.2-0.2-0.2   c-0.8-0.4-1.3-0.7-1.6-0.8c0.2-0.3,0.6-0.8,1.2-1.7c0.1-0.1,0.1-0.2,0.1-0.3l0.2-1.2c0-0.3-0.2-0.7-0.5-0.8l-1.9-0.5   c0,0-0.1,0-0.2,0c0,0-0.1,0-0.1,0l1.1-1.6c0.1-0.1,0.1-0.3,0-0.4c-0.1-0.1-0.2-0.2-0.4-0.2h-1.5c-0.2,0-0.5,0.1-0.6,0.3l-1.8,3   c-0.1,0.2-0.1,0.5,0,0.7L22.9,53.6z"
       id="path8"
       style="fill:#003399;fill-opacity:1" /><path
       d="M20.9,61.3l-0.2-1.9l0.8-1.7c0.1-0.2,0.1-0.4,0-0.5l-0.6-1.8c-0.1-0.3-0.4-0.5-0.7-0.5c0,0-0.1,0-0.2,0l-2.7,0.7   c-0.2,0-0.3,0.1-0.4,0.3l-1.1,1.6c-0.1,0.1-0.1,0.3-0.1,0.4v2c0,0.2,0.2,0.4,0.4,0.4l0.2,0C16,60.6,16,60.7,16,60.8   c0,0.2,0.1,0.4,0.4,0.6l-1.2,1.3c-0.2,0.3-0.2,0.7,0,1l0.5,0.5c0.1,0.1,0.3,0.2,0.5,0.2c0.1,0,0.3,0,0.4-0.1l3.9-2.3   C20.8,61.9,20.9,61.6,20.9,61.3z"
       id="path10"
       style="fill:#003399;fill-opacity:1" /><path
       d="M37.3,38.5c0.1,0.3,0.4,0.5,0.7,0.5c0,0,0.2,0,0.2,0l1.9-0.6l-2,7.5c-0.1,0.2,0,0.4,0.1,0.6c0.1,0.2,0.3,0.3,0.6,0.3h3.9   c0.3,0,0.6-0.2,0.7-0.4l1.2-3l4.4,10.7c0.1,0.3,0.4,0.4,0.6,0.4c0.1,0,0.2,0,0.3-0.1l2.9-1.5c0.2-0.1,0.4-0.3,0.4-0.6l0.7-7.9   l2.2-0.6c0.3-0.1,0.5-0.3,0.5-0.6l0.1-1.1c0-0.2,0-0.4-0.2-0.5c-0.1-0.1-0.3-0.2-0.6-0.2l-2.2,0.3l1.6-7.6l4.7-3.6   c0.1-0.1,0.2-0.3,0.3-0.5l0.4-3.2l1.5-3.2l2.6-0.5l1.6,3.5l-2.7,3.3l-3.1,3.6c-0.1,0.1-0.2,0.3-0.2,0.5l0.4,5.4   c0,0.2,0.1,0.4,0.3,0.5l2.2,1.8c0.1,0.1,0.3,0.2,0.4,0.2c0,0,0.2,0,0.2,0l2.4-0.9l3.2-0.1c0.2,0,0.4-0.1,0.5-0.3l5.1-6.7   c0.2-0.3,0.2-0.6,0-0.9L74,31.3L73.2,27l0.8-2.2c0.1-0.2,0.1-0.3,0-0.5l-1.4-3.8l0.7-4.3c0-0.2,0-0.4-0.2-0.6L71.4,14l0.5-5.6   l1.8-1.8C73.9,6.3,74,6,73.9,5.8L73.6,5c-0.1-0.3-0.4-0.5-0.7-0.5c0,0,0,0,0,0l-6.8,0.2c-0.1,0-0.2,0-0.3,0.1l-5.5,2.9l-4.7,2.9   c-0.1,0.1-0.2,0.1-0.2,0.2l-4.6,6.6c0,0-0.1,0.1-0.1,0.1l-4.6,9.6L44.8,28c-0.3,0.2-0.4,0.5-0.3,0.9l0.3,0.9   c0.1,0.2,0.2,0.3,0.4,0.4l0.4,0.2L41.3,32c-0.1,0-0.2,0.1-0.3,0.2l-3.9,4.3C37,36.7,36.9,37,37,37.2L37.3,38.5z"
       id="path12"
       style="fill:#003399;fill-opacity:1" /><path
       d="M15.6,10.9c0.1,0,0.2,0,0.3-0.1l2.3-1.3c0.2-0.1,0.3-0.3,0.3-0.5c0-0.2,0-0.4-0.1-0.6l-1.1-1.4C17.2,7,17,6.9,16.8,6.9   c0,0-0.1,0-0.2,0l-0.7,0.2c-0.7-1.3-0.9-1.4-1.2-1.4c0,0,0,0,0,0c-0.2,0-0.4,0-1.9,1.5c-0.1,0.1-0.2,0.2-0.2,0.4l-0.3,1.6   c-0.1,0.3,0.1,0.7,0.5,0.8l2.6,0.9C15.4,10.9,15.6,10.9,15.6,10.9z"
       id="path14"
       style="fill:#003399;fill-opacity:1" /></g></svg>