<?xml version="1.0" encoding="UTF-8" standalone="no"?>
<svg
   xmlns:dc="http://purl.org/dc/elements/1.1/"
   xmlns:cc="http://creativecommons.org/ns#"
   xmlns:rdf="http://www.w3.org/1999/02/22-rdf-syntax-ns#"
   xmlns:svg="http://www.w3.org/2000/svg"
   xmlns="http://www.w3.org/2000/svg"
   xmlns:sodipodi="http://sodipodi.sourceforge.net/DTD/sodipodi-0.dtd"
   xmlns:inkscape="http://www.inkscape.org/namespaces/inkscape"
   version="1.1"
   x="0px"
   y="0px"
   viewBox="0 0 100 125"
   style="enable-background:new 0 0 100 100;"
   xml:space="preserve"
   id="svg20"
   sodipodi:docname="noun_Cloud Docker_676618.svg"
   inkscape:version="0.92.2 5c3e80d, 2017-08-06"
   inkscape:export-filename="/Users/bebatut/Documents/com/usegalaxy-eu/branding/usegalaxy-eu-flyer/noun_Cloud Docker_676618.png"
   inkscape:export-xdpi="300"
   inkscape:export-ydpi="300"><metadata
     id="metadata26"><rdf:RDF><cc:Work
         rdf:about=""><dc:format>image/svg+xml</dc:format><dc:type
           rdf:resource="http://purl.org/dc/dcmitype/StillImage" /></cc:Work></rdf:RDF></metadata><defs
     id="defs24" /><sodipodi:namedview
     pagecolor="#ffffff"
     bordercolor="#666666"
     borderopacity="1"
     objecttolerance="10"
     gridtolerance="10"
     guidetolerance="10"
     inkscape:pageopacity="0"
     inkscape:pageshadow="2"
     inkscape:window-width="1144"
     inkscape:window-height="965"
     id="namedview22"
     showgrid="false"
     inkscape:zoom="1.888"
     inkscape:cx="50"
     inkscape:cy="62.5"
     inkscape:window-x="0"
     inkscape:window-y="0"
     inkscape:window-maximized="0"
     inkscape:current-layer="g14" /><g
     id="g14"><path
       d="M37.4,15.4H26.2v9.9c3.5,0.1,7.3,0.3,11.2,0.4V15.4z"
       id="path2"
       style="fill:#ffffff;fill-opacity:1" /><path
       d="M51.5,26.2V15.4H40.3v10.4c3.5,0.2,7.1,0.3,10.8,0.5H51.5z"
       id="path4"
       style="fill:#ffffff;fill-opacity:1" /><rect
       x="54.3"
       y="15.4"
       width="11.2"
       height="10.9"
       id="rect6"
       style="fill:#ffffff;fill-opacity:1" /><rect
       x="26.2"
       y="2"
       width="11.2"
       height="10.9"
       id="rect8"
       style="fill:#ffffff;fill-opacity:1" /><rect
       x="40.4"
       y="2"
       width="11.2"
       height="10.9"
       id="rect10"
       style="fill:#ffffff;fill-opacity:1" /><path
       d="M 79.5,54.3 C 86.2,48.8 90.7,41.9 91.8,34.6 93.1,26.4 89.4,18.1 88.2,15.7 91.6,13.6 93.4,11.8 94,9.4 94.7,6.5 92.9,3.1 91.4,2 91.3,3.7 90.6,4.8 89,6 c -1.3,1 -4.5,1.9 -4.8,5 -2.2,-0.6 -4.3,1.1 -5.7,1.7 -1.5,0.6 -3.8,0.9 -5,0.8 0.8,2.4 1.7,4.2 4.3,5.1 2.2,0.8 5,-0.5 8.1,-1.7 0.6,0.9 1.4,5.6 0.6,8.2 -1.3,4 -11,4.4 -29.1,3.8 C 30.3,28.1 4.6,25.3 3.9,31.5 3.5,34.6 3.3,41 7.5,48.8 c 5.4,10 17.7,17.5 33.3,17.8 4.8,0.1 9.5,-0.3 13.9,-1.2 3.3,1.7 6.3,3.1 9.5,3.9 5.3,1.4 10,1 12,0.1 2,-0.9 0,-1.6 -1.9,-1.9 -1.8,-0.3 -6.3,-3.6 -11,-4.4 5.4,-1.9 10.3,-4.5 14.4,-7.6 z M 34.9,47.8 c 1.3,0 2.3,1 2.3,2.3 0,1.3 -1,2.3 -2.3,2.3 -1.3,0 -2.3,-1 -2.3,-2.3 -0.1,-1.2 1,-2.3 2.3,-2.3 z m -8,15 C 22.8,61 17.4,58.2 12.8,53 c 1.4,0.2 2.9,0.4 4.4,0.4 4.2,4.3 10.4,8.4 17.3,9.7 -5.5,-2.1 -10,-4.4 -14.3,-9.7 1,0 1.9,-0.1 2.9,-0.2 5.1,4.9 12.5,9.2 17.7,10.3 C 36,61.3 29.8,57.4 25.8,52.9 27,52.7 28.1,52.5 29.3,52.2 32.9,57 41.9,64 52,64.5 40.1,66.2 30.4,64.3 26.9,62.8 Z"
       id="path12"
       inkscape:connector-curvature="0"
       sodipodi:nodetypes="ccccccccccccccccccsccccssscsccccccccccc"
       style="fill:#ffffff;fill-opacity:1" /></g></svg>