<?xml version="1.0" encoding="UTF-8" standalone="no"?>
<svg
   xmlns:dc="http://purl.org/dc/elements/1.1/"
   xmlns:cc="http://creativecommons.org/ns#"
   xmlns:rdf="http://www.w3.org/1999/02/22-rdf-syntax-ns#"
   xmlns:svg="http://www.w3.org/2000/svg"
   xmlns="http://www.w3.org/2000/svg"
   xmlns:sodipodi="http://sodipodi.sourceforge.net/DTD/sodipodi-0.dtd"
   xmlns:inkscape="http://www.inkscape.org/namespaces/inkscape"
   version="1.1"
   x="0px"
   y="0px"
   viewBox="0 0 64 80"
   enable-background="new 0 0 64 64"
   xml:space="preserve"
   id="svg10"
   sodipodi:docname="noun_tools_128608_white.svg"
   inkscape:export-filename="/Users/bebatut/Documents/com/usegalaxy-eu/branding/usegalaxy-eu-flyer/noun_tools_128608_white.png"
   inkscape:export-xdpi="300"
   inkscape:export-ydpi="300"
   inkscape:version="0.92.2 5c3e80d, 2017-08-06"><metadata
     id="metadata16"><rdf:RDF><cc:Work
         rdf:about=""><dc:format>image/svg+xml</dc:format><dc:type
           rdf:resource="http://purl.org/dc/dcmitype/StillImage" /></cc:Work></rdf:RDF></metadata><defs
     id="defs14" /><sodipodi:namedview
     pagecolor="#ffffff"
     bordercolor="#666666"
     borderopacity="1"
     objecttolerance="10"
     gridtolerance="10"
     guidetolerance="10"
     inkscape:pageopacity="0"
     inkscape:pageshadow="2"
     inkscape:window-width="1162"
     inkscape:window-height="1006"
     id="namedview12"
     showgrid="false"
     inkscape:zoom="2.95"
     inkscape:cx="-29.016949"
     inkscape:cy="40"
     inkscape:window-x="0"
     inkscape:window-y="0"
     inkscape:window-maximized="0"
     inkscape:current-layer="svg10" /><g
     id="g4"
     style="fill:#ffffff;fill-opacity:1"><path
       d="M1.266,53.063l17.737-17.739l3.39,3.39l5.69-5.69L14.506,19.444c-3.228,1.498-7.143,1.269-10.24-0.951   c-3.113-2.229-4.592-5.892-4.188-9.445l7.041,5.046c1.209,0.865,2.905,0.585,3.771-0.624l2.628-3.67   c0.864-1.207,0.585-2.904-0.623-3.771L5.851,0.985c3.235-1.525,7.178-1.305,10.291,0.927c4.055,2.904,5.338,8.229,3.304,12.591   l13.578,13.58l12.693-12.692l0.275-5.677L57.492,0L64,6.507l-9.715,11.501l-5.539,0.14l-12.83,12.829l13.578,13.579   c3.227-1.497,7.141-1.268,10.236,0.951c3.115,2.23,4.594,5.891,4.193,9.444l-7.045-5.044c-1.207-0.867-2.902-0.587-3.77,0.623   L50.48,54.2c-0.865,1.209-0.586,2.904,0.625,3.77l7.043,5.046c-3.236,1.523-7.178,1.304-10.291-0.927   c-4.057-2.905-5.338-8.231-3.303-12.592l-13.578-13.58l-5.691,5.69l3.39,3.389L10.938,62.733c-1.688,1.688-4.447,1.688-6.135,0   l-3.537-3.537C-0.422,57.51-0.422,54.749,1.266,53.063z"
       id="path2"
       style="fill:#ffffff;fill-opacity:1" /></g></svg>