<?xml version="1.0" encoding="UTF-8" standalone="no"?>
<svg
   xmlns:dc="http://purl.org/dc/elements/1.1/"
   xmlns:cc="http://creativecommons.org/ns#"
   xmlns:rdf="http://www.w3.org/1999/02/22-rdf-syntax-ns#"
   xmlns:svg="http://www.w3.org/2000/svg"
   xmlns="http://www.w3.org/2000/svg"
   xmlns:sodipodi="http://sodipodi.sourceforge.net/DTD/sodipodi-0.dtd"
   xmlns:inkscape="http://www.inkscape.org/namespaces/inkscape"
   version="1.1"
   x="0px"
   y="0px"
   viewBox="0 0 512 640"
   style="enable-background:new 0 0 512 512;"
   xml:space="preserve"
   id="svg14"
   sodipodi:docname="noun_groups_829918.svg"
   inkscape:export-filename="/Users/bebatut/Documents/com/usegalaxy-eu/branding/freiburg-flyer/noun_groups_829918.png"
   inkscape:export-xdpi="300"
   inkscape:export-ydpi="300"
   inkscape:version="0.92.2 5c3e80d, 2017-08-06"><metadata
     id="metadata20"><rdf:RDF><cc:Work
         rdf:about=""><dc:format>image/svg+xml</dc:format><dc:type
           rdf:resource="http://purl.org/dc/dcmitype/StillImage" /></cc:Work></rdf:RDF></metadata><defs
     id="defs18" /><sodipodi:namedview
     pagecolor="#ffffff"
     bordercolor="#666666"
     borderopacity="1"
     objecttolerance="10"
     gridtolerance="10"
     guidetolerance="10"
     inkscape:pageopacity="0"
     inkscape:pageshadow="2"
     inkscape:window-width="880"
     inkscape:window-height="930"
     id="namedview16"
     showgrid="false"
     inkscape:zoom="0.36875"
     inkscape:cx="256"
     inkscape:cy="320"
     inkscape:window-x="0"
     inkscape:window-y="0"
     inkscape:window-maximized="0"
     inkscape:current-layer="svg14" /><g
     id="g8"
     style="fill:#003399;fill-opacity:1"><path
       d="M220.2,312.6c-2.8-3.8-5.4-7-7.7-10.5c-4.1-6.1-7.6-12.5-7.7-20.2c0-1.4-1.3-2.9-2.3-4.1c-10.1-11.8-16.8-25.1-18.6-40.7   c-0.8-6.8,0-13.3,5.9-18.1c1-0.8,1.2-3,1.3-4.5c0.1-9.8,0.5-19.7,0-29.5c-1.3-22.3,11.9-48,43.3-56c16.2-4.1,32.6-4.6,49-1   c25.3,5.5,41.2,22.5,44.4,48.3c1.5,12,0.9,24.2,1.1,36.3c0,2.7,0.4,4.3,2.8,6.5c2.8,2.6,4.7,7.3,5,11.3   c1.1,12.5-3.6,23.7-10.5,33.7c-5.9,8.7-11,17.4-14,27.6c-2.1,7.1-7.2,13.3-11.4,20.5c3.7,2,8.1,4.8,12.7,6.9   c17.3,7.7,34.7,15.2,52.1,22.8c39,17.1,56,48,56.5,89.5c0.1,7.3-2.9,12.7-9.6,14.7c-12,3.7-24.2,7.7-36.6,9.5   c-59.5,8.5-119.5,10.1-179.5,7c-27.4-1.4-54.8-4.1-81.2-12.6c-0.9-0.3-1.9-0.6-2.8-1c-14-5.3-16.8-9.2-15.2-23.9   c2.5-21.9,10.1-41.9,23.6-59.6c6.7-8.7,15.2-15,25-19.5c18.9-8.6,38.1-16.7,57.1-25.1C208.7,318.4,214.2,315.5,220.2,312.6z"
       id="path2"
       style="fill:#003399;fill-opacity:1" /><path
       d="M381.5,236.2c4.2,2.1,9.1,4.9,14.2,7.2c17.8,7.9,35.7,15.5,53.4,23.6c33.7,15.6,49.6,43.3,52.9,79.3c0.2,2,0.3,4,0.5,6   c0.8,11.3-2.7,16.4-14,18.6c-10.6,2.1-21.3,3.4-32.1,4.9c-8.1,1.1-16.2,1.8-24.3,2.9c-3.4,0.5-5.6,0.1-6.9-3.6   c-6.7-19.4-20.6-31.8-38.8-40c-15.9-7.2-31.8-14.6-47.6-22c-4.3-2-8.4-4.6-13.4-7.4c6.5-11.6,12.2-23,19-33.8   c10.1-16.2,13.8-34.2,8.4-51.7c-4.7-15.5-5.2-31.2-7.4-46.8c-4.9-34.7-29.1-58.6-64.1-62.4c-2.1-0.2-4.3-0.6-6.6-1   c0-4.8-0.8-9.7,0.1-14.3c5.2-24.8,24.5-42.1,49.6-45.4c13-1.7,26-1.4,38.8,1.3c26.5,5.5,43,24.1,45.5,51.9   c1,11.2,0.4,22.6,0.3,33.9c0,2.3,0.1,3.8,2.5,5.2c4.5,2.6,5.1,7.6,5.3,12.3c0.5,13.2-4.4,24.9-11.8,35.4c-5.2,7.4-9.1,15-11.8,23.8   C390.9,221.4,385.8,228.1,381.5,236.2z"
       id="path4"
       style="fill:#003399;fill-opacity:1" /><path
       d="M139.2,235.4c-9.7-9.6-14.2-20.7-16.6-32.8c-0.4-1.9-2.2-3.7-3.5-5.4c-8.2-10.5-14.7-21.9-16.4-35.3   c-0.9-7.5-1.7-15.3,6.3-20.6c1.2-0.8,1-4.2,0.8-6.4c-1.2-13-1-26,1.7-38.8c5.9-27,23.9-43.1,51.5-46c16.5-1.7,32.9-1.8,48.6,4.9   c21.1,9.1,35.1,32.3,32.5,54.4c-1.6,0.3-3.3,0.7-5,1.1c-7.7,2-15.6,3.5-23,6.3c-24.1,9.3-38.1,27.1-42.1,52.6   c-1.1,7.2-2.7,14.6-2.3,21.8c0.6,11.9-5.9,22-7.1,33.3c-1.8,16.4,0.4,32.1,9.3,46.5c6.8,11,12.7,22.5,19.4,34.4   c-5.6,3-10.3,5.9-15.2,8.2c-14.6,6.9-29.3,13.6-44,20.2c-19,8.5-33.8,21.1-40.9,41.4c-1,2.8-2.5,3.8-5.5,3.4   c-17.8-2.4-35.7-4.6-53.5-6.9c-2.6-0.3-5.2-1.2-7.7-1.9c-6-1.7-9.5-5.8-9.6-12c-0.5-36.9,11.7-67.8,45.1-86.5   c18.5-10.3,38.7-17.7,58.1-26.5C126.2,242.1,132.3,238.9,139.2,235.4z"
       id="path6"
       style="fill:#003399;fill-opacity:1" /></g></svg>