<?xml version="1.0" encoding="UTF-8" standalone="no"?>
<svg
   xmlns:dc="http://purl.org/dc/elements/1.1/"
   xmlns:cc="http://creativecommons.org/ns#"
   xmlns:rdf="http://www.w3.org/1999/02/22-rdf-syntax-ns#"
   xmlns:svg="http://www.w3.org/2000/svg"
   xmlns="http://www.w3.org/2000/svg"
   xmlns:sodipodi="http://sodipodi.sourceforge.net/DTD/sodipodi-0.dtd"
   xmlns:inkscape="http://www.inkscape.org/namespaces/inkscape"
   version="1.1"
   x="0px"
   y="0px"
   viewBox="0 0 100 125"
   enable-background="new 0 0 100 100"
   xml:space="preserve"
   id="svg8"
   sodipodi:docname="noun_chat_802760.svg"
   inkscape:export-filename="/Users/bebatut/Documents/com/usegalaxy-eu/branding/usegalaxy-eu-flyer/noun_chat_802760.png"
   inkscape:export-xdpi="300"
   inkscape:export-ydpi="300"
   inkscape:version="0.92.2 5c3e80d, 2017-08-06"><metadata
     id="metadata14"><rdf:RDF><cc:Work
         rdf:about=""><dc:format>image/svg+xml</dc:format><dc:type
           rdf:resource="http://purl.org/dc/dcmitype/StillImage" /></cc:Work></rdf:RDF></metadata><defs
     id="defs12" /><sodipodi:namedview
     pagecolor="#ffffff"
     bordercolor="#666666"
     borderopacity="1"
     objecttolerance="10"
     gridtolerance="10"
     guidetolerance="10"
     inkscape:pageopacity="0"
     inkscape:pageshadow="2"
     inkscape:window-width="1084"
     inkscape:window-height="1181"
     id="namedview10"
     showgrid="false"
     inkscape:zoom="1.888"
     inkscape:cx="50"
     inkscape:cy="62.5"
     inkscape:window-x="0"
     inkscape:window-y="0"
     inkscape:window-maximized="0"
     inkscape:current-layer="svg8" /><path
     fill-rule="evenodd"
     clip-rule="evenodd"
     d="M79.2,5.2H20.8C9.3,5.2,0,14.5,0,26v29.1C0,66.7,9.3,76,20.9,76  c2.9,0,5.2,2.3,5.2,5.2v9.5c0,3.7,4.5,5.5,7.1,2.9l15.2-15.1c1.6-1.6,3.7-2.4,5.9-2.4h24.9c11.5,0,20.8-9.3,20.8-20.8V26  C100,14.5,90.7,5.2,79.2,5.2z M29.2,46.8c-3.4,0-6.3-2.8-6.3-6.2s2.8-6.2,6.3-6.2c3.4,0,6.2,2.8,6.2,6.2S32.6,46.8,29.2,46.8z   M50,46.8c-3.4,0-6.3-2.8-6.3-6.2s2.8-6.2,6.3-6.2c3.4,0,6.2,2.8,6.2,6.2S53.4,46.8,50,46.8z M70.8,46.8c-3.4,0-6.3-2.8-6.3-6.2  s2.8-6.2,6.3-6.2c3.4,0,6.2,2.8,6.2,6.2S74.3,46.8,70.8,46.8z"
     id="path2"
     style="fill:#ffffff;fill-opacity:1" /></svg>